<svg width="46" height="36" fill="none" xmlns="http://www.w3.org/2000/svg"><path d="M4.21 22.953l-3.96 7.66h5.804l1.032-2.15a17.846 17.846 0 0014.157 6.916c6.858 0 12.79-3.823 15.774-9.418l3.076 4.716h5.668V11.083h-5.19V21.73l-1.603-2.333a19.3 19.3 0 00.078-1.581c0-3.465-1.025-6.698-2.777-9.417h9.5V4.357H32.687A17.88 17.88 0 0021.243.247c-9.834 0-17.81 7.863-17.81 17.576 0 1.785.27 3.507.776 5.13zm2.876 5.517a17.565 17.565 0 01-2.877-5.517l6.132-11.863h5.661l-4.707 9.017h4.778v4.842H8.774L7.086 28.47zm16.77 2.144h-5.184V8.399h-6.345l1.71-4.042h18.657A17.582 17.582 0 0136.276 8.4h-12.42v22.215zM37.01 25.96l-4.088-6.247V30.62h-5.868V11.083h6.21l5.697 8.314a16.979 16.979 0 01-1.951 6.564z" fill="#EF3B2D"/><path d="M37.01 25.961l-4.088-6.247V30.62h-5.868V11.083h6.21l5.696 8.314a16.978 16.978 0 01-1.95 6.564zm-29.924 2.51a17.565 17.565 0 01-2.877-5.518L10.34 11.09h5.662l-4.707 9.017h4.778v4.842h-7.3L7.087 28.47zm16.77 2.143h-5.184V8.398h-6.345l1.71-4.04h18.657a17.585 17.585 0 013.582 4.04h-12.42v22.216z" fill="#fff"/></svg>