<svg width="58" height="50" fill="none" xmlns="http://www.w3.org/2000/svg"><g clip-path="url(#clip0)"><path fill-rule="evenodd" clip-rule="evenodd" d="M51.209 27.986l-1.456-6.752-.377-.44v7.522c0 1.372-.917 2.031-1.834 2.031-.809 0-1.563-.494-1.995-1.208l-.916-1.756v2.415c0 .165-.162.33-.378.33h-2.857c-.162 0-.324-.165-.324-.33v-7.905c0-1.208.917-1.867 1.887-1.867.917 0 1.672.55 2.05 1.373l.808 1.647v-2.58c0-.22.108-.33.323-.33h2.535l-2.858-2.91c-.054 0-.108.055-.108.055h-.7c-.109 0-.27-.11-.27-.274v-.824l-.917-.933-.593 1.812c-.054.11-.108.164-.27.164h-.7a.296.296 0 01-.27-.164l-1.186-3.404c-.054-.11 0-.165.053-.274.054-.055.108-.11.216-.11h.701c.108 0 .216.055.27.165l.593 1.811.323-.933-8.68-8.784s1.563 3.184 2.48 9.003l.054-.054c.053-.11.107-.22.215-.22h.647c.108 0 .216.055.216.22l.216.713.215-.713c.054-.11.108-.165.216-.165h.647c.108 0 .162.055.216.11.054.055.054.164.054.22l-.81 2.47c-.053.11-.107.22-.215.22h-.593c-.108 0-.216-.11-.27-.22l-.161-.66-.162.66c-.054.055-.054.055-.054.11.27 2.36.378 4.995.27 7.96h2.696c.161 0 .323.164.323.329v1.812c0 .22-.162.384-.323.384H37.19C36.004 40.229 29.156 50 29.156 50m-9.005-19.709c-2.48 0-3.72-1.976-3.72-3.952 0-.988.323-1.921.916-2.58.755-.879 1.995-1.318 3.397-1.098V20.41c0-.22.162-.384.378-.384h.7C23.44 9.54 29.48.592 29.48.592L7.75 22.716c.27.658.485 1.427.54 2.305 0 .988-.216 1.867-.54 2.58l16.768 17.184s-2.264-5.49-2.911-14.713c-.431.11-.917.22-1.456.22zm-5.553-3.733l1.455 1.428c.108.11.108.274.054.439-.755 1.098-2.156 1.812-3.612 1.812-1.833 0-3.828-1.208-3.828-3.843 0-2.525 1.94-3.898 3.774-3.898 1.671 0 3.127 1.043 3.774 2.745.054.165-.054.33-.162.384l-1.455.933c-.054 0 0 0 0 0z" fill="#009036"/><path fill-rule="evenodd" clip-rule="evenodd" d="M19.559 26.393c0 .275.161.604.485.604.431 0 .7-.274.7-.714v-.494h-.053c-.108-.055-.216-.055-.378-.055-.7 0-.754.494-.754.66zM.256 29.743V20.41h3.289c2.696.055 4.313 1.977 4.421 4.612 0 2.745-1.617 4.72-4.421 4.72v-2.744c1.78.055 2.318-3.843-.378-3.843v6.533m12.671-4.282l-3.29 1.921-.754-1.372 1.24-.714c-.593-.769-1.887.055-1.671 1.263.215 1.098 1.617 1.921 3.019.329l1.456 1.427c-1.78 2.69-6.848 2.251-6.848-1.866 0-3.953 5.392-4.886 6.848-.988z" fill="#1A171B"/><path fill-rule="evenodd" clip-rule="evenodd" d="M21.068 20.3h2.588v5.436c0 2.47-.862 4.172-3.504 4.172-4.583 0-4.637-7.74.593-7.027v2.525c-1.995-.384-1.833 1.922-.701 1.922.593 0 1.024-.494 1.024-1.098m7.604 3.513c-2.211.384-4.26-.988-4.26-3.349 0-2.196 1.51-3.458 3.613-3.458 2.156 0 3.666 1.646 3.666 3.842v3.02h-2.642v-3.404c0-.659-.485-.988-1.078-.933-1.51 0-1.079 2.58.647 1.702" fill="#1A171B"/><path d="M35.248 20.41h-2.75v9.333h2.75V20.41zm4.908 4.996h-3.613v1.812h3.613v-1.812z" fill="#1A171B"/><path fill-rule="evenodd" clip-rule="evenodd" d="M41.395 29.742v-7.85c0-1.867 2.534-2.087 3.288-.385l1.402 3.02v-4.063h2.858v7.85c0 2.087-2.372 2.142-3.181.604l-1.564-2.964v3.788m5.771-9.332h2.857l.917 5.655.917-5.655h2.965l-1.833 8.29c-.378 1.592-3.774 1.592-4.098-.11M28.67 16.95v-3.403h.7l1.403 2.306v-2.306h.593v3.404h-.701L29.317 14.7v2.25h-.647zm5.446-.768l.593.11c-.378 1.262-2.21.933-2.21-.55 0-1.756 2.318-1.81 2.318.165h-1.618c-.054.714.701.879.917.275zm0-.659c-.054-.768-.97-.768-.97 0h.97zm2.21 1.428l-.755-2.47h.593l.432 1.591.431-1.592h.647l.378 1.592.431-1.592h.647l-.755 2.47h-.593l-.431-1.591-.432 1.592h-.593zm5.931 0l-1.24-3.404h.755l.863 2.525.809-2.525h.7l-1.186 3.404h-.7zm2.75-2.8h.647v-.604h-.647v.604zm0 2.8h.647v-2.47h-.647v2.47zm1.672-.66l.647-.109c.053.11.107.22.161.274.216.11.593.11.755.055.216-.22.054-.384-.162-.384-.539-.11-.862-.22-1.024-.33-.377-.274-.377-.768-.054-1.097.324-.275 1.186-.275 1.51-.055a.8.8 0 01.323.494l-.593.055c-.108-.44-.916-.33-.916-.055 0 .22.539.274.7.274.432.11.917.22.917.769 0 .604-.593.823-1.132.823-.485 0-.97-.164-1.133-.713zm3.45-2.14h.647v-.604h-.647v.604zm0 2.8h.647v-2.47h-.647v2.47zm1.726-1.263c0-.714.539-1.263 1.24-1.263.755 0 1.24.55 1.24 1.263 0 .714-.54 1.317-1.24 1.317-.809 0-1.24-.549-1.24-1.317zm.647 0c0 .384.215.768.593.768.377 0 .593-.384.593-.768s-.162-.769-.593-.769c-.432 0-.593.44-.593.769zm5.122 1.263h-.593v-1.263c0-.275-.054-.44-.054-.55-.108-.383-.701-.274-.863.11-.054.11-.054.275-.054.55v1.098h-.647v-2.47h.593v.438c.216-.274.486-.439.81-.439.377 0 .7.165.754.55.054.109.054.219.054.438v1.538z" fill="#1A171B"/></g><defs><clipPath id="clip0"><path fill="#fff" d="M0 0h58v50H0z"/></clipPath></defs></svg>