<svg width="87" height="30" fill="none" xmlns="http://www.w3.org/2000/svg"><path d="M23.635 5.646h14.192v5.074h-7.741v1.808h4.868v4.607h-4.868v6.24h-6.451V5.646zm22.814 0v13.471h7.037v4.2H40.173V5.646h6.276zm9.91 0h6.276v17.67H56.36V5.646zm23.929 9.973c.528-.175.997-.467 1.407-.759.587-.466 1.056-.991 1.408-1.69a4.294 4.294 0 00.528-2.1c0-.642-.118-1.283-.41-1.925-.294-.641-.705-1.166-1.232-1.69a6.604 6.604 0 00-2.58-1.459c-.998-.291-2.288-.466-3.754-.466H65.86V23.2h6.275v-6.765l6.04 6.765h7.86l-7.625-7.232c.704 0 1.35-.175 1.877-.35zm-8.21-6.415h1.172c1.35 0 2.287.175 2.874.583.305.178.55.441.704.758.176.291.234.583.234.875 0 .291-.117.583-.293.874-.176.292-.41.525-.704.758-.586.409-1.525.584-2.873.584h-1.173V9.204h.058zm-67.21 5.831l5.22-5.19 5.219 5.19-5.22 5.19-5.22-5.19zM0 10.195l4.81 4.782L0 19.759l10.029 9.972 10.028-9.914-4.809-4.782 4.81-4.782L10.027.281 0 10.195zm84.745-3.207h.352c.176 0 .235-.117.235-.292 0-.117-.059-.233-.235-.233h-.352v.525zm0 .933h-.293V6.288h.645c.293 0 .47.233.47.408 0 .175-.177.35-.353.408.235 0 .293.059.293.408 0 .059 0 .35.06.409h-.294c-.059-.117-.059-.35-.059-.525 0-.175-.176-.175-.234-.175h-.294v.7h.06zm-.997-.817c0 .7.528 1.225 1.232 1.225.703 0 1.231-.525 1.231-1.225 0-.7-.528-1.224-1.231-1.224-.645 0-1.232.524-1.232 1.224zm2.698 0c0 .817-.645 1.458-1.408 1.458a1.448 1.448 0 01-1.466-1.458c0-.816.645-1.4 1.466-1.4.763-.058 1.408.584 1.408 1.4z" fill="#002F87"/></svg>