<svg width="113" height="16" fill="none" xmlns="http://www.w3.org/2000/svg"><path d="M.197.61H18.32v3.283H3.953v2.42h14.426v3.505H3.953v5.91H.197V.61zm20.815 0h3.753v11.377h12.032v3.77H21.012V.612zm27.844 15.18h-7.3s-2.573-.15-2.84-2.913V.641h3.754v11.614h13.274V.64h3.755v12.236c-.267 2.764-2.838 2.912-2.838 2.912h-7.805zM62.84.61v15.148h3.99v-5.672l9.046 5.672h6.681l-12.21-7.78L81.997.61h-6.591L66.8 5.809V.611h-3.96zM84.39.372v15.15h18.861v-3.536H88.115V9.818h15.136V6.284H88.115V3.937h15.165V.372H84.39zm25.97 10.948c.363 0 .717.094 1.063.28.345.188.615.456.808.804.192.348.289.711.289 1.09 0 .373-.095.733-.285 1.079a2.02 2.02 0 01-.799.804c-.343.19-.702.286-1.076.286-.374 0-.733-.095-1.076-.286a2.027 2.027 0 01-.8-.805 2.2 2.2 0 01-.287-1.079c0-.378.097-.74.291-1.09.194-.347.464-.615.809-.802.346-.187.7-.28 1.063-.28zm0 .36a1.83 1.83 0 00-.887.235c-.287.156-.512.38-.674.67-.162.29-.244.594-.244.908 0 .313.08.613.24.9.159.287.382.51.668.67.287.16.586.24.897.24.311 0 .61-.08.897-.24a1.69 1.69 0 00.667-.67 1.83 1.83 0 00.238-.9 1.85 1.85 0 00-.242-.908 1.668 1.668 0 00-.675-.67 1.835 1.835 0 00-.885-.235zm-.948 3.013v-2.337h.799c.273 0 .471.022.593.065.122.043.22.119.292.226a.598.598 0 01.109.343c0 .17-.061.32-.182.446a.717.717 0 01-.483.213.632.632 0 01.198.123c.094.092.208.247.344.464l.283.457h-.458l-.206-.368c-.162-.29-.293-.471-.393-.544a.478.478 0 00-.3-.08h-.221v.992h-.375zm.375-1.315h.456c.217 0 .366-.033.445-.098a.32.32 0 00.119-.259.318.318 0 00-.057-.185.35.35 0 00-.159-.123c-.068-.027-.194-.04-.377-.04h-.427v.705z" fill="#000"/></svg>