<svg width="90" height="19" fill="none" xmlns="http://www.w3.org/2000/svg"><path d="M29.118 6.332h-1.002c-2.485.011-4.969.034-7.464.023-.456 0-.604.136-.672.591-.4 2.845-.843 5.689-1.277 8.533-.022.148-.08.285-.125.456h-2.074V4.897h-.17v.592c-.012 3.208-.012 6.405-.023 9.614 0 .899-.012.899-.912.899-1.276 0-2.564-.137-3.817.045-3.213.444-6.438.091-9.651.228-.069 0-.149.023-.308.057.102.728.216 1.445.33 2.253-.433 0-.866.022-1.287-.012-.103-.011-.24-.227-.262-.353-.604-4.902.626-9.27 3.988-12.912 6.256-6.781 16.727-7.02 23.348-.626.5.478.99.967 1.48 1.456a2.473 2.473 0 01-.102.194zM9.793 15.058l-.068.171c-.183.103-.354.273-.536.285-.66.045-1.265-.114-1.755-.592-.205-.205-.478-.341-.718-.5-.376-.262-.74-.547-1.128-.797a.748.748 0 00-.399-.125c-.934 0-1.811-.945-1.754-1.878.022-.307.17-.603.467-.477.535.239.809-.091 1.15-.33.855-.58 1.721-1.093 2.815-1.093.365 0 .82-.102 1.094-.318.41-.33.707-.808 1.048-1.229.365-.444.73-.899 1.117-1.331.25-.273.57-.49.81-.774.261-.296.455-.648.706-.956.66-.785 1.002-.796 1.652-.113.65-.137 1.265-.273 1.88-.41V1.496C7.662 1.52 1.406 8.801 1.714 15.912h8.98c.022-.046.033-.08.056-.125-.319-.24-.638-.49-.957-.729zM16.56 1.462v2.503c0 .774.251.956 1.014.706a13.602 13.602 0 001.641-.638c1.345-.637 2.724-.113 4.08-.08.695.024 1.39.433 2.085.66-2.553-2.047-5.47-3.037-8.82-3.15zm60.439 12.846c.33-2.082.65-4.027.968-6.018h2.347a182.77 182.77 0 01-.421 2.935c-.33 2.196-.672 4.38-.98 6.576-.057.41-.194.558-.604.524-.638-.046-1.413.17-1.891-.114-.456-.273-.627-1.035-.89-1.593-.615-1.263-1.207-2.526-1.811-3.789-.08-.159-.182-.318-.342-.591-.262 1.74-.478 3.333-.752 4.926-.228 1.388.125 1.138-1.288 1.16-.41.012-.831 0-1.321 0 .17-1.114.319-2.15.478-3.185.32-2.116.661-4.221.969-6.337.057-.41.205-.558.604-.524.524.034 1.07-.023 1.595.034.194.023.433.216.524.387.843 1.673 1.664 3.357 2.496 5.04.08.16.17.308.319.57zm-37.523-1.992c-.068 2.31-.717 4.346-2.86 5.575-1.675.956-3.475 1.035-5.264.33-1.493-.58-2.051-1.855-2.222-3.368-.365-3.129 1.675-6.2 4.615-6.747.912-.17 1.903-.148 2.814 0 1.732.273 2.747 1.513 2.906 3.3.034.307.011.614.011.91zM34.77 9.972c-.706-.046-1.344.239-1.811.808-1.106 1.342-1.459 2.878-.992 4.574.16.58.536 1 1.128 1.183 1.117.341 2.245-.034 2.906-1.013a5.447 5.447 0 00.923-3.447c-.091-1.4-.82-2.094-2.154-2.105zm8 8.318h-2.417c.08-.638.16-1.24.251-1.844.376-2.583.764-5.165 1.14-7.76.045-.318.16-.455.501-.443 1.732.023 3.453-.023 5.185.023 1.937.056 2.769 1.149 2.427 3.037-.183 1.036-.581 1.57-1.732 2.344.98.535.991 1.422.877 2.367-.091.728-.137 1.456-.205 2.287-.604 0-1.333.023-2.063-.023-.113-.011-.307-.284-.319-.444-.022-.466-.022-.956.057-1.41.206-1.286-.148-1.741-1.424-1.753-.433 0-.877 0-1.31-.022-.342-.023-.456.102-.502.432a128.878 128.878 0 01-.467 3.208zm.842-5.587c.935 0 1.8.023 2.667-.011.228-.012.467-.16.66-.308.41-.307.627-.99.456-1.433-.193-.524-.626-.66-1.139-.649-.627.012-1.254-.023-1.88.012-.16.011-.399.204-.433.352-.148.637-.228 1.297-.33 2.037zM63.19 8.254c-.171 1.251-.342 2.423-.502 3.607-.125.932-.227 1.877-.341 2.821-.092.694-.035 1.343.672 1.718.66.353 1.812.285 2.29-.261.365-.421.707-.967.81-1.502.364-1.934.637-3.88.91-5.837.058-.432.206-.58.639-.558.604.035 1.208.012 1.891.012-.16 1.047-.296 2.025-.455 3.004-.171 1.137-.365 2.275-.536 3.424-.444 2.97-2.917 4.255-5.617 3.903a5.194 5.194 0 01-1.31-.353c-1.414-.592-2.006-1.752-1.767-3.436.285-2.037.593-4.085.911-6.121.023-.16.206-.398.33-.41.673-.034 1.346-.011 2.075-.011zm26.479 10.058c-.718 0-1.459.023-2.188-.023-.137-.011-.319-.227-.364-.387-.126-.455-.206-.921-.308-1.445-1.128 0-2.245-.011-3.362.012-.114 0-.239.136-.341.227-.046.034-.046.103-.08.148-.25.478-.422 1.274-.775 1.377-.74.216-1.595.068-2.507.068.33-.637.615-1.183.9-1.73 1.39-2.628 2.792-5.256 4.17-7.895.16-.308.343-.444.696-.421.535.034 1.06-.012 1.595.022.16.012.399.171.433.296.74 3.186 1.459 6.383 2.177 9.58 0 .034-.023.08-.046.17zm-3.852-7.339c-.638 1.297-1.207 2.446-1.788 3.641h2.495c-.228-1.195-.444-2.332-.707-3.64z" fill="#000"/><path d="M29.244 8.277c-.091.603-.16 1.16-.285 1.707-.023.114-.308.227-.479.227-1.265.023-2.54.035-3.817.035-.444 0-.707.102-.718.614-.023.523-.148 1.035-.228 1.627h4.114c-.08.649-.126 1.229-.251 1.786-.023.126-.33.262-.513.262-1.208.023-2.427.011-3.703.011-.137.888-.25 1.764-.41 2.629-.25 1.388.136 1.172-1.333 1.194-.376.012-.752 0-1.254 0l1.516-10.092h7.36zm30.469.023c-.068.547-.102 1.081-.205 1.593-.034.137-.285.319-.456.33-.695.034-1.401.046-2.108.012-.444-.023-.57.148-.626.569-.32 2.31-.672 4.607-1.014 6.906-.035.205-.08.41-.137.637H52.75c.399-2.697.798-5.359 1.208-8.101h-3.02c.103-.694.194-1.297.285-1.957 2.826.011 5.64.011 8.49.011zm-43.87 9.056c-.558-.205-.946-.387-1.356-.49-.17-.045-.479.023-.558.148-.365.58-.889.319-1.277.194-.57-.182-1.082-.546-1.572-.956h5.128v2.344h-1.47l1.105-1.24zm2.758-1.092c-.068.432-.125.808-.17 1.183-.058.375-.103.75-.16 1.16h-1.675v-2.332c.638-.011 1.287-.011 2.005-.011z" fill="#000"/></svg>