<svg width="105" height="30" fill="none" xmlns="http://www.w3.org/2000/svg"><path d="M22.738 15.052h5.768c1.562 0 1.538 0 1.393 1.562-.168 2.042-.745 3.965-1.754 5.695-1.682 2.883-4.109 5.118-7.209 6.416-1.826.769-3.796 1.081-5.839 1.057-2.547-.048-4.974-.48-7.137-1.802-2.114-1.274-3.82-2.932-5.262-5.046C.198 19.28.175 15.292.895 11.255c.385-2.163 1.634-4.109 3.1-5.791C5.341 3.926 7.023 2.82 8.801 1.835 10.435.922 12.261.634 14.04.465c3.724-.36 7.137.746 10.14 2.884 1.01.721 1.85 1.779 2.692 2.764 1.514 1.778 2.162 3.869 2.883 5.96.36 1.056.168 1.345-.961 1.345-1.754 0-3.532 0-5.287.024-.672 0-.985-.168-1.201-.937-.649-2.187-2.259-3.557-4.325-4.422-3.148-1.321-5.936-.36-8.29 1.754-.914.841-1.587 2.139-1.875 3.437-.577 2.57.024 4.998 1.682 6.896 1.13 1.274 2.716 2.283 4.662 2.475 2.62.24 4.806-.552 6.608-2.379.168-.168.529-.336.384-.672-.144-.337-.48-.217-.744-.217-1.394-.024-2.812-.048-4.206 0-.72.024-1.033-.216-.985-.961.048-.6.048-1.201.024-1.802-.072-1.61-.048-1.538 1.586-1.538 1.995 0 3.941 0 5.911-.024 0 .024 0 .024 0 0z" fill="#D72A23"/><path d="M62.315 19.258v-8.77c0-.553.024-.914.744-.914 5.167.072 10.333-.192 15.5.144 2.21.145 3.724 1.538 4.998 3.413 1.201 1.802 1.61 3.772 1.682 5.719.072 2.09-.24 4.253-1.49 6.2-1.85 2.907-4.493 3.892-7.713 3.916-4.158.024-8.339-.024-12.496.024-.937 0-1.225-.24-1.201-1.201.023-2.836-.024-5.695-.024-8.53zm6.463-.192c0 1.442.048 2.884-.024 4.325-.024.697.217.89.865.865 1.995-.048 3.99-.048 6.008-.072 1.37-.024 2.307-.793 2.836-2.066.648-1.514.504-3.1.288-4.566-.288-1.994-1.058-3.412-3.917-3.484-1.754-.048-3.532 0-5.287-.024-.648-.024-.793.216-.793.84.048 1.395.024 2.788.024 4.182zm18.842.143c0-2.932.024-5.84-.025-8.771 0-.649.12-.89.842-.89 5.094.025 10.164.025 15.258 0 .769 0 .938.241.842.962-.097.793-.145 1.634 0 2.403.216.985-.241 1.033-.986 1.01-2.451-.025-4.878 0-7.329 0-.48 0-.961.023-1.442 0-.672-.049-1.08.168-1.033.936.048.745-.192 1.61.913 1.755.36.048.721 0 1.082 0 2.595 0 5.214 0 7.809-.049.721-.024 1.034.169.961.938a12.09 12.09 0 000 2.282c.097.842-.216 1.082-1.033 1.082-2.715-.024-5.43-.024-8.17-.024-.288 0-.553-.024-.841 0-.625.048-.985.336-.769 1.01.12.408.096.792.072 1.176-.048 1.226-.048 1.226 1.202 1.226 2.835 0 5.695.024 8.53-.024.745 0 .985.24.961.937-.024.961-.048 1.923 0 2.884.048.745-.216.913-.913.913-4.998-.024-9.996-.024-15.018 0-.793 0-1.01-.216-1.01-.985.097-2.932.097-5.84.097-8.771zm-55.358-2.956c0-1.874.048-3.773-.024-5.647-.024-.865.264-1.081 1.081-1.057 1.322.072 2.643.024 3.965.024 1.346 0 1.346 0 1.346 1.297v10.453c0 2.019 1.153 3.364 2.86 3.292 1.73-.048 3.22-1.586 3.243-3.34.024-3.484 0-6.968 0-10.453 0-1.25 0-1.25 1.322-1.25s2.643.025 3.965 0c.673-.023 1.033.169 1.033.938-.024 3.556.048 7.113-.048 10.693-.048 1.874-.625 3.7-1.826 5.143-1.466 1.754-3.316 2.931-5.767 2.835-1.586-.072-3.196.024-4.806-.096-1.947-.168-3.365-1.25-4.614-2.595-1.394-1.49-1.754-3.316-1.706-5.287 0-1.682-.024-3.316-.024-4.95zm27.755 2.907c0 2.884-.024 5.768.024 8.627.024.89-.264 1.202-1.154 1.178-1.441-.048-2.883-.072-4.325 0-.913.048-1.13-.313-1.13-1.154.049-5.166.025-10.308.049-15.475 0-.865-.433-1.922.168-2.547.6-.6 1.658-.168 2.523-.216.89-.048 1.754.024 2.643-.024.865-.024 1.25.168 1.226 1.201-.096 2.812-.024 5.6-.024 8.41z" fill="#090909"/></svg>