<svg width="96" height="36" fill="none" xmlns="http://www.w3.org/2000/svg"><path d="M32.606 7.464c-3.623-.91-7.081-.566-10.519-.667-.761-.02-1.07.222-1.296.93-1.215 3.964-2.491 7.908-3.747 11.852-.968 3.074-1.956 6.128-2.923 9.202-.082.263-.206.506-.144.89h6.216c.494 0 .474-.425.556-.728 1.4-4.268 2.78-8.515 4.159-12.782.638-1.962 1.276-3.904 1.873-5.886.185-.627.535-.829 1.173-.85 1.173-.04 2.285.203 3.355.668.618.283 1.03.789 1.153 1.457.268 1.476-.185 2.75-1.235 3.781-1.4 1.376-3.047 2.347-5.023 2.771-.535.122-.617.364-.432.87 1.256 3.398 2.47 6.816 3.705 10.234.124.343.31.465.68.445.37-.02.761 0 1.132 0 .144.364-.186.485-.35.647-3.088 3.034-6.793 4.773-11.137 5.258-3.231.364-6.237-.283-9.201-1.476-.597-.243-.72-.506-.535-1.133 1.646-5.056 3.293-10.112 4.899-15.189 1.194-3.761 2.47-7.483 3.582-11.244.535-1.82 1.152-3.64 1.77-5.461.185-.546.391-.728 1.009-.607 2.552.546 4.92 1.517 7.08 2.993a19.56 19.56 0 014.2 4.025z" fill="#C32E2D"/><path d="M59.45 21.904c2.14 2.508 4.302 5.056 6.463 7.605-.041.06-.062.141-.103.202h-5.517c-.452 0-.638-.364-.864-.627-1.77-2.043-3.54-4.105-5.311-6.168-.35.141-.185.424-.185.606-.02 1.78-.041 3.58 0 5.36.02.688-.206.87-.865.829-1.03-.04-2.058-.06-3.088 0-.7.04-.864-.202-.844-.85.021-3.235.021-6.471.021-9.707 0-3.337.02-6.674-.02-10.011-.021-.769.226-.971.987-.951 2.47.121 4.94-.182 7.39.182 5.044.748 7.679 5.825 5.394 10.335-.638 1.254-1.688 2.103-2.903 2.77-.206.102-.432.142-.556.425zm-3.973-3.741c.494-.02 1.07-.02 1.646-.182 1.256-.364 1.915-1.214 1.894-2.528-.02-1.194-.761-2.083-1.997-2.346-.802-.182-1.626-.203-2.45-.203-.575-.02-.678.243-.658.728.02 1.032 0 2.084 0 3.115 0 1.416 0 1.416 1.565 1.416zm39.873-2.265c-1.09 2.508-2.1 4.874-3.108 7.22a1219.308 1219.308 0 00-5.085 11.913c-.247.606-.555.89-1.276.849-1.256-.081-2.532-.02-3.767-.02-.185-.344.02-.567.124-.81.638-1.516 1.276-3.053 1.955-4.55.268-.566.247-1.052.02-1.638-1.502-4.005-2.963-8.03-4.446-12.054-.102-.283-.288-.546-.206-.91 1.4 0 2.8.02 4.2-.02.576-.02.659.323.803.728.74 2.103 1.502 4.186 2.243 6.29.062.182.144.364.289.728l.926-2.083c.72-1.68 1.44-3.358 2.14-5.036.165-.425.371-.648.886-.648 1.38.061 2.758.04 4.302.04z" fill="#626262"/><path d="M78.84 22.793c0 2.063-.02 4.106 0 6.169 0 .546-.123.789-.74.768-1.133-.04-2.265 0-3.397-.02-.288 0-.638.101-.68-.384-.02-.364-.267-.162-.432-.101-4.302 1.375-7.904-.93-8.44-5.38-.226-1.901.021-3.701 1.07-5.34 1.668-2.608 4.674-3.7 7.658-2.79 1.277.384 2.574.141 3.87.202 1.05.04 1.05.02 1.05 1.031.041 1.942.041 3.883.041 5.845zm-4.775-.445v-2.123c0-.324-.062-.567-.433-.688-1.07-.364-2.655.122-3.314 1.052-.782 1.092-.823 3.013-.082 4.105.72 1.052 2.038 1.376 3.15.79.473-.244.72-.567.679-1.113-.041-.668 0-1.355 0-2.023z" fill="#626262"/><path d="M45.843 22.147c0 2.225-.042 4.45.02 6.654.02.81-.247.97-.988.93-1.05-.06-2.12-.02-3.19 0-.474 0-.742-.06-.742-.647.02-4.61.02-9.222 0-13.813 0-.506.186-.627.66-.627 1.172.02 2.325.04 3.498 0 .598-.02.742.202.742.768-.021 2.225 0 4.49 0 6.735zm-38-18.79C5.6 10.315 3.418 17.131 1.173 24.108c-2.922-7.24-.246-16.28 6.67-20.75zM18.055.264C14.617 11.024 11.2 21.702 7.762 32.4c-1.38-.749-1.38-.749-.947-2.043l7.843-24.39 1.482-4.612c.37-1.234.37-1.234 1.915-1.092zm-3.11.263c-3.21 10.051-6.401 19.961-9.592 29.912-.823-.506-.988-1.011-.7-1.88 2.923-9 5.805-18 8.666-27.021.268-.83.741-1.031 1.626-1.011zm18.65 26.291a810.634 810.634 0 00-2.676-6.431c-.144-.324-.144-.546.268-.688 1.523-.546 2.882-1.355 4.137-2.386.515-.425.68-.324.72.323.207 2.832-.802 6.695-2.449 9.182zm9.777-13.833c-.515 0-1.03-.02-1.544 0-.617.04-.947-.101-.885-.809.062-1.072.041-2.144 0-3.236-.02-.485.082-.748.659-.728 1.194.04 2.388.02 3.602 0 .412 0 .638.101.618.566a105.163 105.163 0 000 3.64c0 .466-.206.587-.618.567-.597-.02-1.215 0-1.832 0zM3.396 28.073c-.679-.364-.535-.83-.37-1.335C5.002 20.61 6.958 14.482 8.913 8.374c.659-2.043 1.318-4.105 1.976-6.148.144-.486.33-.89 1.091-.87-2.882 8.9-5.722 17.798-8.584 26.717zm-1.522-2.549c-.412-.223-.494-.506-.33-1.032C3.83 17.494 6.073 10.476 8.317 3.458c.164-.485.37-.849 1.05-1.01-2.47 7.766-4.9 15.45-7.493 23.076z" fill="#C32E2D"/></svg>