<svg width="114" height="23" fill="none" xmlns="http://www.w3.org/2000/svg"><path fill-rule="evenodd" clip-rule="evenodd" d="M108.45 6.522h-8.86v8.55l1.323 3.024h3.249v-3.513h2.683c.359 0 .661.037.888.112.226.076.396.188.529.357.113.17.188.395.226.677.019.244.038.47.038.695 0 .226 0 .432.019.639 0 .207.038.395.057.564.037.169.094.338.17.47h5.006v-.189c-.17-.093-.303-.263-.378-.507a3.906 3.906 0 01-.151-.958c-.019-.395-.057-.864-.076-1.428a9.577 9.577 0 00-.075-.865 2.597 2.597 0 00-.208-.676 1.768 1.768 0 00-.416-.507 3.29 3.29 0 00-.737-.414c.397-.15.737-.375 1.021-.657.283-.282.51-.62.642-.996.151-.376.227-.808.227-1.259 0-.564-.114-1.052-.34-1.484a2.587 2.587 0 00-.983-1.034c-.359-.225-.869-.376-1.511-.47-.661-.094-1.436-.131-2.343-.131zM6.722 1.486c-5.63 2.838-7.896 9.658-5.044 15.258 2.853 5.599 9.71 7.835 15.34 4.998 5.63-2.838 7.896-9.658 5.044-15.258-2.853-5.599-9.71-7.835-15.34-4.998zm97.44 10.034V9.453h2.513c.434 0 .812.019 1.095.075.284.038.51.15.662.282.151.15.226.357.226.658 0 .282-.075.507-.208.657-.132.15-.359.264-.623.32a5.291 5.291 0 01-1.039.094h-2.626v-.019zm-13.998 2.593l1.473-4.077 1.398 4.077h-2.871zm-6.31 3.983h4.817l.416-1.146h4.95l.377 1.146h4.874L94.603 6.522H88.88l-5.025 11.574zm-14.64-3.532c.019 1.841 1.398 2.912 3.041 3.4 1.002.302 2.23.452 3.703.47 1.776 0 3.25-.13 4.42-.413 1.172-.282 2.04-.733 2.626-1.334.586-.601.87-1.39.87-2.349 0-.958-.322-1.71-.945-2.273-.643-.564-1.587-.92-2.872-1.109l-4.1-.582a13.823 13.823 0 01-.963-.17c-.245-.056-.453-.15-.566-.244a.45.45 0 01-.19-.394c0-.226.133-.414.416-.545.284-.132.68-.207 1.228-.207.7 0 1.228.094 1.606.282.378.188.586.451.642.827h5.233c-.056-.864-.378-1.56-.925-2.105-.548-.545-1.36-.94-2.419-1.183-1.058-.245-2.38-.376-3.948-.376-1.511 0-2.777.131-3.76.376-.981.244-1.737.657-2.21 1.202-.49.545-.717 1.26-.717 2.142 0 .977.359 1.748 1.058 2.33.699.583 1.757.94 3.136 1.128l3.362.413c.53.075.945.169 1.21.32.264.15.396.356.396.6 0 .283-.151.49-.453.62-.303.132-.756.207-1.36.207-.624 0-1.096-.094-1.455-.263-.34-.169-.548-.413-.586-.714h-5.478v-.056zm-10.258 3.532h10.692c-1.133-.695-1.738-1.879-1.87-3.513h-4.307V6.522h-4.515v11.574zM48.32 6.522h-4.496v6.069c0 1.334.246 2.424.737 3.288.491.865 1.247 1.503 2.267 1.898 1.02.413 2.305.62 3.873.62s2.852-.207 3.872-.601c1.02-.414 1.757-1.052 2.248-1.898.491-.864.737-1.954.737-3.307v-6.07h-4.496v5.657c0 .544-.038 1.014-.113 1.409-.076.394-.19.714-.378.958a1.5 1.5 0 01-.718.545c-.302.113-.699.17-1.152.17-.454 0-.85-.057-1.153-.17a1.648 1.648 0 01-.736-.545 2.485 2.485 0 01-.378-.958 7.595 7.595 0 01-.114-1.41V6.523zm-12.524 2.48c.453 0 .812.038 1.114.113.284.075.51.188.642.376.133.188.208.432.208.77s-.075.583-.208.77c-.132.188-.358.32-.642.376-.283.075-.661.113-1.114.094H33.32V9.002h2.475zm-6.971 9.094h4.496v-4.058h4.194c1.114 0 2.04-.15 2.814-.451.756-.3 1.342-.733 1.738-1.278.397-.563.586-1.24.586-2.03 0-.788-.208-1.446-.586-2.01-.396-.563-.963-.977-1.738-1.277-.755-.301-1.7-.451-2.814-.451h-8.69v11.555z" fill="#0066B3"/><path fill-rule="evenodd" clip-rule="evenodd" d="M8.139 20.108c5.232 2.217 11.334-.113 13.526-5.168a9.49 9.49 0 00.755-2.893l-12.184 3.232-2.097 4.829zm14.338-8.944a10.122 10.122 0 00-.756-3.965c-1.076-2.593-3.117-4.547-5.554-5.6l-2.569 5.9-12.317 2.932v.77a1991.42 1991.42 0 0121.196-.037z" fill="#fff"/></svg>