<svg width="79" height="34" fill="none" xmlns="http://www.w3.org/2000/svg"><path d="M11.774 32.078c0 .667.366.902.915.902.274 0 .509-.052.796-.196v.693a2.085 2.085 0 01-.98.236c-.874 0-1.54-.432-1.54-1.544V28.9h-.758v-.72h.758v-1.647h.81v1.648h1.723v.72h-1.724v3.177zm6.296 1.556h-.81v-7.702h.81v3.204c.352-.589.927-1.073 1.867-1.073 1.32 0 2.09.89 2.09 2.184v3.387h-.81v-3.19c0-1.02-.548-1.648-1.515-1.648-.94 0-1.633.68-1.633 1.713v3.125zm10.396-.576c.745 0 1.28-.314 1.724-.772l.51.458c-.549.615-1.215 1.02-2.247 1.02-1.502 0-2.717-1.15-2.717-2.85 0-1.583 1.11-2.852 2.613-2.852 1.62 0 2.546 1.295 2.546 2.89 0 .079 0 .157-.013.249H26.56c.092 1.19.94 1.857 1.907 1.857zm1.58-2.459c-.078-.993-.653-1.857-1.737-1.857-.953 0-1.658.798-1.763 1.857h3.5zm5.381 3.035h-.81v-5.453h.81v1.425c.405-.902 1.188-1.556 2.22-1.516v.876h-.065c-1.188 0-2.155.863-2.155 2.497v2.171zm12.016-5.571c1.254 0 2.025.85 2.025 2.197v3.373h-.81v-3.19c0-1.06-.523-1.648-1.41-1.648-.824 0-1.516.614-1.516 1.687v3.138h-.797v-3.204c0-1.02-.535-1.621-1.397-1.621s-1.515.72-1.515 1.726v3.112h-.81V28.18h.81v.916c.352-.537.836-1.034 1.763-1.034.888 0 1.45.471 1.75 1.086.379-.602.953-1.085 1.907-1.085zm6.413 1.164l-.248-.667c.601-.275 1.189-.445 1.986-.445 1.489 0 2.324.759 2.324 2.197v3.335h-.783v-.824c-.379.497-1.006.941-1.972.941-1.006 0-2.038-.575-2.038-1.713 0-1.163.953-1.778 2.325-1.778.692 0 1.188.091 1.672.235v-.196c0-.98-.601-1.49-1.62-1.49-.627 0-1.136.17-1.646.405zm.092 2.785c0 .693.627 1.099 1.371 1.099 1.006 0 1.829-.615 1.829-1.478v-.523a5.653 5.653 0 00-1.607-.235c-1.018-.014-1.593.431-1.593 1.137zm8.895-6.08h-.81v7.702h.81v-7.702zM.36 19.55l1.567-1.857c2.338 2.118 4.584 3.178 7.68 3.178 3.004 0 4.989-1.609 4.989-3.806V17c0-2.08-1.123-3.27-5.825-4.263-5.146-1.125-7.523-2.786-7.523-6.473v-.066C1.248 2.68 4.356.078 8.6.078c3.265 0 5.603.929 7.876 2.746L15 4.773c-2.077-1.7-4.167-2.433-6.465-2.433-2.913 0-4.768 1.596-4.768 3.61v.065c0 2.119 1.15 3.296 6.074 4.355 4.989 1.085 7.288 2.916 7.288 6.342v.066c0 3.844-3.2 6.342-7.641 6.342-3.526.026-6.44-1.164-9.13-3.57zm27.244 1.4c2.495 0 4.245-1.02 5.721-2.564l1.685 1.517c-1.829 2.04-4.036 3.413-7.484 3.413-4.99 0-9.051-3.831-9.051-9.494 0-5.27 3.683-9.494 8.711-9.494 5.368 0 8.464 4.29 8.464 9.638 0 .248 0 .523-.026.942H21.217c.38 3.818 3.187 6.041 6.387 6.041zm5.303-8.226c-.313-3.309-2.207-6.12-5.8-6.12-3.12 0-5.51 2.602-5.903 6.12h11.703zm13.714 8.226c2.495 0 4.258-1.02 5.721-2.564l1.685 1.517c-1.829 2.04-4.036 3.413-7.484 3.413-4.99 0-9.065-3.831-9.065-9.494 0-5.27 3.684-9.494 8.712-9.494 5.368 0 8.464 4.29 8.464 9.638 0 .248 0 .523-.04.942h-14.38c.38 3.818 3.2 6.041 6.387 6.041zm5.303-8.226c-.313-3.309-2.207-6.12-5.8-6.12-3.12 0-5.51 2.602-5.903 6.12h11.703zM59.303.352h-2.586v22.871h2.586V.352z" fill="#000"/><path d="M70.666 23.264L59.225 11.809 70.666.353 73.853.34 62.412 11.809l11.441 11.455h-3.187z" fill="#000"/><path d="M53.086.248H21.61v2.053h31.477V.248z" fill="url(#paint0_linear)"/><path d="M53.086.248H21.61v2.053h31.477V.248z" fill="url(#paint1_linear)"/><path d="M75.748 2.237h-.275V.576h-.614V.314h1.516v.262h-.614v1.66h-.013zm2.024-.419h-.04L77.055.772V2.25h-.275V.328h.288l.692 1.059.68-1.06h.286V2.25h-.274V.772l-.679 1.046z" fill="#BDBDBD"/><defs><linearGradient id="paint0_linear" x1="21.609" y1="1.284" x2="53.085" y2="1.284" gradientUnits="userSpaceOnUse"><stop/><stop offset=".056" stop-color="#2C0003"/><stop offset=".133" stop-color="#610107"/><stop offset=".204" stop-color="#8C010B"/><stop offset=".268" stop-color="#AA020D"/><stop offset=".323" stop-color="#BC020E"/><stop offset=".362" stop-color="#C3020F"/><stop offset=".699" stop-color="#EC631B"/><stop offset=".913" stop-color="#F9F5BC"/><stop offset="1" stop-color="#F9F5BC"/></linearGradient><linearGradient id="paint1_linear" x1="37.348" y1=".248" x2="37.348" y2="2.301" gradientUnits="userSpaceOnUse"><stop stop-color="#fff"/><stop offset="1" stop-color="#fff" stop-opacity="0"/></linearGradient></defs></svg>