<svg width="41" height="42" fill="none" xmlns="http://www.w3.org/2000/svg"><path fill-rule="evenodd" clip-rule="evenodd" d="M20.457.28c11.234 0 20.405 9.223 20.405 20.522 0 11.3-9.17 20.523-20.405 20.523C9.202 41.325.031 32.101.031 20.802.031 9.504 9.202.28 20.457.28z" fill="#DB812E"/><path fill-rule="evenodd" clip-rule="evenodd" d="M13.083 23.575c-.143.431-.552.658-1.144.658-.878 0-1.389-.555-1.41-1.562h5.7v-.205c0-2.959-1.635-4.705-4.351-4.705-2.717 0-4.392 1.644-4.392 4.273 0 2.507 1.634 4.15 4.29 4.15 2.349 0 3.799-.904 4.207-2.609h-2.9zm-2.656-2.486c.041-.924.511-1.458 1.267-1.458.837 0 1.287.493 1.348 1.458h-2.615zm20.14.884c0 2.609 1.696 4.211 4.494 4.211 2.819 0 4.514-1.602 4.514-4.211s-1.695-4.211-4.514-4.211c-2.798 0-4.494 1.602-4.494 4.21zm3.187 0c0-1.397.347-2.034 1.307-2.034s1.328.637 1.328 2.034c0 1.397-.368 2.034-1.328 2.034-.96 0-1.307-.637-1.307-2.034zM28.688 23v-3.143h1.47v-1.808h-1.47v-2.424h-3.104v2.424H24.48v1.808h1.104v3.944c0 1.685.734 2.24 2.654 2.24.614 0 1.267-.021 1.941-.062v-2.28c-.163.02-.306.02-.45.02-.755 0-1.041-.164-1.041-.72zm-12.153.431c.143 1.85 1.43 2.753 3.901 2.753 2.655 0 4.024-.925 4.024-2.712 0-1.705-1.042-2.136-3.309-2.67-.96-.226-1.45-.226-1.45-.781 0-.349.265-.555.817-.555.551 0 .919.308.96.78h2.717c-.184-1.643-1.43-2.485-3.718-2.485-2.45 0-3.738.925-3.738 2.589s1.103 2.095 3.452 2.609c.838.205 1.267.246 1.267.821 0 .411-.348.658-.981.658-.674 0-1-.329-1-1.007h-2.942zM5.566 23v-3.143h1.47v-1.808h-1.47v-2.424H2.461v2.424H1.338v1.808H2.46v3.944c0 1.685.715 2.24 2.656 2.24.613 0 1.266-.021 1.94-.062v-2.28c-.143.02-.306.02-.429.02-.756 0-1.062-.164-1.062-.72z" fill="#fff"/></svg>