<svg width="115" height="76" fill="none" xmlns="http://www.w3.org/2000/svg"><g filter="url(#filter0_d)"><rect x="6" y="3" width="102.4" height="64" rx="7" fill="#fff"/></g><path d="M55.614 34.745v6.861h-2.176V24.66h5.76a5.217 5.217 0 013.737 1.46 4.66 4.66 0 011.562 3.583c.025 1.357-.538 2.688-1.562 3.584-.998.973-2.253 1.434-3.738 1.434l-3.584.026zm0-7.987v5.914h3.635a2.82 2.82 0 002.15-.87 2.851 2.851 0 00.051-4.07c-.025-.026-.025-.052-.05-.052a2.843 2.843 0 00-2.151-.896l-3.636-.026zm13.901 2.867c1.613 0 2.867.435 3.814 1.28.948.845 1.383 2.048 1.383 3.533v7.142h-2.074v-1.613h-.102c-.896 1.332-2.1 1.997-3.584 1.997-1.28 0-2.355-.384-3.2-1.126-.845-.691-1.306-1.741-1.28-2.842 0-1.203.46-2.15 1.357-2.867.896-.717 2.124-1.05 3.635-1.075 1.28 0 2.355.23 3.2.717v-.487c0-.742-.333-1.459-.896-1.92a3.148 3.148 0 00-2.1-.793c-1.203 0-2.175.512-2.892 1.536l-1.92-1.204c1.024-1.51 2.585-2.278 4.659-2.278zm-2.816 8.422c0 .564.256 1.101.717 1.408a2.545 2.545 0 001.69.564c.92 0 1.791-.359 2.457-1.024.717-.666 1.075-1.485 1.075-2.381-.666-.538-1.613-.82-2.842-.82-.896 0-1.612.205-2.201.64-.614.461-.896.973-.896 1.613zM86.64 30.01L79.37 46.7h-2.253l2.688-5.837-4.762-10.854h2.355l3.456 8.32h.051l3.354-8.32h2.38z" fill="#5F6368"/><path d="M46.832 33.26c0-.665-.05-1.33-.179-1.97h-9.165v3.737h5.248a4.42 4.42 0 01-1.945 2.944v2.432h3.123c1.843-1.69 2.918-4.199 2.918-7.143z" fill="#4285F4"/><path d="M37.487 42.758c2.611 0 4.839-.87 6.451-2.355l-3.123-2.432c-.87.588-1.997.921-3.302.921-2.535 0-4.685-1.715-5.453-4.019h-3.277v2.509a9.735 9.735 0 008.704 5.376z" fill="#34A853"/><path d="M32.036 34.898a5.76 5.76 0 010-3.712v-2.508h-3.251a9.706 9.706 0 000 8.73l3.251-2.51z" fill="#FBBC04"/><path d="M37.489 27.167a5.327 5.327 0 013.738 1.459l2.764-2.765a9.325 9.325 0 00-6.502-2.534 9.691 9.691 0 00-8.678 5.35l3.225 2.509c.768-2.33 2.919-4.02 5.453-4.02z" fill="#EA4335"/><defs><filter id="filter0_d" x="0" y="0" width="114.4" height="76" filterUnits="userSpaceOnUse" color-interpolation-filters="sRGB"><feFlood flood-opacity="0" result="BackgroundImageFix"/><feColorMatrix in="SourceAlpha" values="0 0 0 0 0 0 0 0 0 0 0 0 0 0 0 0 0 0 127 0"/><feOffset dy="3"/><feGaussianBlur stdDeviation="3"/><feColorMatrix values="0 0 0 0 0.620833 0 0 0 0 0.620833 0 0 0 0 0.620833 0 0 0 0.22 0"/><feBlend in2="BackgroundImageFix" result="effect1_dropShadow"/><feBlend in="SourceGraphic" in2="effect1_dropShadow" result="shape"/></filter></defs></svg>