<svg width="115" height="76" fill="none" xmlns="http://www.w3.org/2000/svg"><g filter="url(#filter0_d)"><rect x="6" y="3" width="102.4" height="64" rx="7" fill="#fff"/></g><path d="M38.512 26.041c-.691.82-1.792 1.46-2.893 1.357-.128-1.1.41-2.278 1.024-2.995.691-.845 1.895-1.434 2.867-1.485.129 1.152-.307 2.278-.998 3.123zm.998 1.587c-1.587-.102-2.97.896-3.737.896-.768 0-1.92-.87-3.2-.844-1.639.025-3.175.947-4.02 2.432-1.715 2.97-.46 7.372 1.23 9.779.819 1.203 1.791 2.509 3.072 2.457 1.228-.05 1.69-.793 3.174-.793 1.485 0 1.92.793 3.2.768 1.331-.026 2.176-1.203 2.995-2.381.922-1.357 1.306-2.688 1.331-2.74-.025-.025-2.585-.998-2.61-3.942-.026-2.457 2.022-3.635 2.098-3.712-1.1-1.69-2.892-1.894-3.532-1.92zm9.242-3.353v17.92h2.79v-6.119h3.866c3.507 0 5.99-2.406 5.99-5.913s-2.431-5.888-5.888-5.888h-6.758zm2.79 2.355h3.2c2.407 0 3.79 1.28 3.79 3.558 0 2.279-1.383 3.559-3.815 3.559h-3.2V26.63h.025zm14.925 15.718c1.741 0 3.38-.896 4.096-2.278h.052v2.15H73.2v-8.934c0-2.586-2.074-4.25-5.248-4.25-2.944 0-5.145 1.69-5.222 4.02h2.509c.204-1.101 1.228-1.818 2.636-1.818 1.69 0 2.663.794 2.663 2.253v.998l-3.482.205c-3.225.205-4.992 1.51-4.992 3.814 0 2.304 1.818 3.84 4.403 3.84zm.743-2.124c-1.485 0-2.432-.717-2.432-1.818 0-1.126.896-1.792 2.636-1.894l3.098-.205v1.024c.026 1.69-1.408 2.893-3.302 2.893zm9.446 6.86c2.714 0 3.994-1.024 5.094-4.172l4.89-13.722H83.8l-3.277 10.598h-.052L77.195 29.19h-2.919l4.71 13.056-.255.794c-.436 1.356-1.127 1.868-2.356 1.868-.23 0-.64-.025-.819-.05v2.15c.205.05.87.076 1.101.076z" fill="#000"/><defs><filter id="filter0_d" x="0" y="0" width="114.4" height="76" filterUnits="userSpaceOnUse" color-interpolation-filters="sRGB"><feFlood flood-opacity="0" result="BackgroundImageFix"/><feColorMatrix in="SourceAlpha" values="0 0 0 0 0 0 0 0 0 0 0 0 0 0 0 0 0 0 127 0"/><feOffset dy="3"/><feGaussianBlur stdDeviation="3"/><feColorMatrix values="0 0 0 0 0.620833 0 0 0 0 0.620833 0 0 0 0 0.620833 0 0 0 0.22 0"/><feBlend in2="BackgroundImageFix" result="effect1_dropShadow"/><feBlend in="SourceGraphic" in2="effect1_dropShadow" result="shape"/></filter></defs></svg>