<svg width="115" height="76" fill="none" xmlns="http://www.w3.org/2000/svg"><g filter="url(#filter0_d)"><rect x="6" y="3" width="102.4" height="64" rx="7" fill="#fff"/></g><path d="M42.576 52.63c0-.704.503-1.307 1.308-1.307s1.308.603 1.308 1.308c0 .704-.503 1.307-1.308 1.307-.805.101-1.308-.603-1.308-1.307zm3.42 0v-2.112h-.905v.503c-.302-.402-.704-.604-1.308-.604-1.207 0-2.112.906-2.112 2.214 0 1.307.905 2.213 2.112 2.213.604 0 1.006-.201 1.308-.604v.503h.906v-2.112zm30.884 0c0-.704.503-1.307 1.308-1.307s1.308.603 1.308 1.308c0 .704-.503 1.307-1.308 1.307-.805.101-1.308-.603-1.308-1.307zm3.42 0v-3.822h-.905v2.213c-.302-.402-.704-.604-1.307-.604-1.208 0-2.113.906-2.113 2.214 0 1.307.905 2.213 2.113 2.213.603 0 1.005-.201 1.307-.604v.503h.906v-2.112zm-22.936-1.408c.604 0 1.006.403 1.107 1.006h-2.213c.1-.603.503-1.006 1.106-1.006zm0-.805c-1.207 0-2.112.906-2.112 2.214 0 1.307.905 2.213 2.112 2.213.604 0 1.207-.201 1.71-.604l-.402-.704a1.933 1.933 0 01-1.207.402c-.604 0-1.107-.301-1.207-1.006h3.118v-.301c0-1.308-.805-2.214-2.012-2.214zm11.066 2.214c0-.705.503-1.308 1.308-1.308s1.308.603 1.308 1.308c0 .704-.503 1.307-1.308 1.307-.805.101-1.308-.603-1.308-1.307zm3.42 0v-2.113h-.905v.503c-.302-.402-.704-.604-1.308-.604-1.207 0-2.112.906-2.112 2.214 0 1.307.905 2.213 2.112 2.213.604 0 1.006-.201 1.308-.604v.503h.905v-2.112zm-8.55 0c0 1.307.905 2.213 2.213 2.213.603 0 1.006-.1 1.509-.503l-.403-.704c-.302.2-.704.402-1.106.402-.705 0-1.308-.503-1.308-1.308s.503-1.408 1.308-1.408c.402 0 .804.1 1.106.402l.403-.704c-.503-.402-.906-.503-1.51-.503-1.408-.1-2.212.805-2.212 2.113zm11.77-2.214c-.503 0-.906.202-1.107.604v-.503h-.905v4.225h.905V52.43c0-.704.302-1.106.905-1.106.202 0 .403 0 .604.1l.302-.905c-.302 0-.604-.1-.704-.1zm-24.546.503c-.403-.301-1.007-.402-1.71-.402-1.007-.1-1.71.402-1.71 1.308 0 .704.502 1.106 1.407 1.207l.403.1c.503.101.704.202.704.403 0 .302-.302.503-1.006.503a2.603 2.603 0 01-1.408-.402l-.302.704c.503.402 1.106.503 1.81.503 1.208 0 1.912-.604 1.912-1.409 0-.704-.503-1.106-1.509-1.207l-.402-.1c-.403-.101-.705-.101-.705-.403 0-.302.302-.503.805-.503a2.51 2.51 0 011.308.403l.402-.705zm11.77-.503c-.503 0-.805.302-1.107.604v-.503h-.905v4.225h.905V52.43c0-.704.302-1.106.905-1.106.202 0 .403 0 .604.1l.302-.905c-.201 0-.503-.1-.704-.1zm-7.747.101H53.04v-1.207h-.906v1.308h-.805v.804h.805v1.912c0 1.006.402 1.509 1.509 1.509.402 0 .805-.1 1.107-.302l-.302-.805c-.302.201-.604.201-.805.201-.503 0-.604-.301-.604-.704v-1.911h1.51v-.805zm-13.68 4.225v-2.615c0-1.006-.604-1.71-1.61-1.71-.503 0-1.107.2-1.51.704-.301-.503-.704-.705-1.408-.705-.402 0-.905.101-1.207.604v-.503h-.905v4.225h.905V52.43c0-.704.402-1.106 1.006-1.106s.905.402.905 1.106v2.314h.906V52.43c0-.704.402-1.106 1.006-1.106.603 0 .905.402.905 1.106v2.314h1.006z" fill="#231F20"/><path d="M64.124 43.444H50.28V18.576h13.843v24.868z" fill="#FF5F00"/><path d="M51.127 30.983c0-5.03 2.314-9.556 6.036-12.474-2.716-2.112-6.136-3.42-9.758-3.42-8.752.1-15.794 7.142-15.794 15.894a15.757 15.757 0 0015.794 15.794c3.722 0 7.042-1.307 9.758-3.42a15.739 15.739 0 01-6.036-12.374z" fill="#EB001B"/><path d="M82.755 30.983a15.757 15.757 0 01-15.794 15.794c-3.722 0-7.042-1.307-9.758-3.42 3.722-2.917 6.036-7.344 6.036-12.474s-2.414-9.456-6.036-12.374c2.716-2.112 6.036-3.32 9.758-3.32a15.757 15.757 0 0115.794 15.794z" fill="#F79E1B"/><defs><filter id="filter0_d" x="0" y="0" width="114.4" height="76" filterUnits="userSpaceOnUse" color-interpolation-filters="sRGB"><feFlood flood-opacity="0" result="BackgroundImageFix"/><feColorMatrix in="SourceAlpha" values="0 0 0 0 0 0 0 0 0 0 0 0 0 0 0 0 0 0 127 0"/><feOffset dy="3"/><feGaussianBlur stdDeviation="3"/><feColorMatrix values="0 0 0 0 0.620833 0 0 0 0 0.620833 0 0 0 0 0.620833 0 0 0 0.22 0"/><feBlend in2="BackgroundImageFix" result="effect1_dropShadow"/><feBlend in="SourceGraphic" in2="effect1_dropShadow" result="shape"/></filter></defs></svg>