<svg width="115" height="76" fill="none" xmlns="http://www.w3.org/2000/svg"><g filter="url(#filter0_d)"><rect x="6" y="3" width="102.4" height="64" rx="7" fill="#fff"/></g><g clip-path="url(#clip0)"><path d="M82.257 40.592v-.613h-.16l-.185.421-.184-.42h-.16v.612h.113v-.462l.173.398h.117l.173-.4v.464h.113zm-1.014 0v-.508h.205v-.104h-.522v.104h.205v.508h.112z" fill="#0099DF"/><path d="M64.097 43.227H50.275v-24.84h13.822v24.84z" fill="#6C6BBD"/><path d="M51.16 30.806c0-5.04 2.36-9.528 6.033-12.42a15.728 15.728 0 00-9.762-3.378c-8.724 0-15.796 7.073-15.796 15.798s7.072 15.797 15.796 15.797c3.685 0 7.076-1.262 9.762-3.377a15.771 15.771 0 01-6.033-12.42z" fill="#EB001B"/><path d="M82.737 30.806c0 8.725-7.072 15.797-15.796 15.797a15.734 15.734 0 01-9.763-3.377 15.77 15.77 0 006.034-12.42c0-5.04-2.36-9.528-6.034-12.42a15.733 15.733 0 019.763-3.378c8.724 0 15.796 7.073 15.796 15.798z" fill="#0099DF"/><path d="M68.757 50.242c.184 0 .448.036.65.115l-.281.86a1.478 1.478 0 00-.57-.106c-.597 0-.896.386-.896 1.079v2.352h-.913v-4.194h.904v.51c.237-.37.58-.616 1.106-.616zm-3.373.94h-1.491v1.895c0 .42.149.702.606.702.237 0 .535-.08.806-.237l.263.78c-.289.202-.745.326-1.14.326-1.08 0-1.456-.58-1.456-1.554V51.18h-.852v-.833h.852v-1.273h.92v1.273h1.492v.834zm-11.68.894c.098-.605.465-1.018 1.115-1.018.588 0 .966.369 1.062 1.018h-2.176zm3.125.369c-.009-1.308-.816-2.203-1.993-2.203-1.228 0-2.088.895-2.088 2.203 0 1.333.895 2.202 2.15 2.202.632 0 1.211-.158 1.72-.588l-.448-.676c-.35.281-.798.44-1.22.44-.587 0-1.122-.273-1.254-1.027h3.115c.01-.115.018-.228.018-.351zm4.01-1.026a2.69 2.69 0 00-1.307-.361c-.5 0-.799.185-.799.492 0 .28.316.36.71.412l.43.061c.913.133 1.466.518 1.466 1.256 0 .798-.702 1.369-1.913 1.369-.684 0-1.316-.176-1.817-.545l.43-.71c.308.236.765.438 1.396.438.623 0 .957-.184.957-.51 0-.235-.237-.368-.738-.437l-.43-.061c-.938-.133-1.448-.554-1.448-1.238 0-.833.685-1.343 1.747-1.343.667 0 1.272.15 1.71.44l-.394.737zm11.254-.31c-.188 0-.362.033-.524.099a1.255 1.255 0 00-.695.704c-.067.165-.1.348-.1.547 0 .2.033.382.1.547a1.256 1.256 0 00.695.704c.162.067.336.099.524.099s.362-.032.523-.098a1.255 1.255 0 00.7-.704c.067-.166.1-.348.1-.548 0-.199-.033-.382-.1-.547a1.253 1.253 0 00-.7-.704 1.38 1.38 0 00-.523-.099zm0-.867c.325 0 .626.057.904.17a2.134 2.134 0 011.194 1.167c.114.27.172.564.172.88 0 .316-.058.61-.172.88a2.138 2.138 0 01-1.194 1.168 2.382 2.382 0 01-.904.169 2.37 2.37 0 01-.904-.169 2.185 2.185 0 01-.716-.466 2.164 2.164 0 01-.473-.702 2.231 2.231 0 01-.172-.88c0-.316.057-.61.172-.88a2.16 2.16 0 01.473-.7c.2-.199.439-.354.716-.467a2.37 2.37 0 01.904-.17zm-23.72 2.203c0-.737.483-1.343 1.273-1.343.754 0 1.263.58 1.263 1.343s-.509 1.342-1.263 1.342c-.79 0-1.273-.605-1.273-1.342zm3.396 0v-2.097h-.912v.51c-.29-.378-.728-.616-1.325-.616-1.176 0-2.097.922-2.097 2.203 0 1.28.921 2.203 2.097 2.203.597 0 1.035-.237 1.325-.615v.51h.912v-2.098zm-5.141 2.097V51.91c0-.992-.632-1.658-1.65-1.668-.535-.009-1.088.158-1.474.747-.29-.465-.746-.747-1.387-.747-.447 0-.886.132-1.228.623v-.517h-.912v4.194h.92v-2.325c0-.728.404-1.115 1.027-1.115.606 0 .913.395.913 1.106v2.334h.921v-2.325c0-.728.422-1.115 1.026-1.115.624 0 .923.395.923 1.106v2.334h.92zm28.718-.316v.104h.095c.021 0 .04-.005.051-.013a.044.044 0 00.02-.04.042.042 0 00-.02-.038.086.086 0 00-.05-.013h-.096zm.096-.072c.05 0 .088.011.115.033a.11.11 0 01.04.09c0 .033-.01.059-.032.08a.16.16 0 01-.092.038l.127.146h-.1l-.117-.145h-.038v.145h-.083v-.387h.18zm-.025.52a.304.304 0 00.126-.026.33.33 0 00.171-.173.33.33 0 00-.069-.356.311.311 0 00-.102-.069.304.304 0 00-.126-.025.318.318 0 00-.127.026.31.31 0 00-.173.171.313.313 0 00-.025.127c0 .045.008.087.025.126a.306.306 0 00.172.173c.04.017.083.025.128.025zm0-.742c.06 0 .114.011.165.033a.414.414 0 010 .767.423.423 0 01-.592-.384.41.41 0 01.26-.384.423.423 0 01.167-.032z" fill="#231F20"/></g><defs><clipPath id="clip0"><path fill="#fff" transform="translate(31.6 15)" d="M0 0h51.118v39.76H0z"/></clipPath><filter id="filter0_d" x="0" y="0" width="114.4" height="76" filterUnits="userSpaceOnUse" color-interpolation-filters="sRGB"><feFlood flood-opacity="0" result="BackgroundImageFix"/><feColorMatrix in="SourceAlpha" values="0 0 0 0 0 0 0 0 0 0 0 0 0 0 0 0 0 0 127 0"/><feOffset dy="3"/><feGaussianBlur stdDeviation="3"/><feColorMatrix values="0 0 0 0 0.620833 0 0 0 0 0.620833 0 0 0 0 0.620833 0 0 0 0.22 0"/><feBlend in2="BackgroundImageFix" result="effect1_dropShadow"/><feBlend in="SourceGraphic" in2="effect1_dropShadow" result="shape"/></filter></defs></svg>