<svg width="115" height="76" fill="none" xmlns="http://www.w3.org/2000/svg"><g filter="url(#filter0_d)"><rect x="6" y="3" width="102.4" height="64" rx="7" fill="#fff"/></g><path d="M58.224 31.57c-.026 2.636 2.355 4.121 4.173 5.017 1.843.896 2.483 1.485 2.457 2.278-.025 1.23-1.485 1.767-2.841 1.792-2.381.026-3.79-.64-4.89-1.152l-.87 4.02c1.1.512 3.148.947 5.299.972 4.992 0 8.269-2.457 8.294-6.297.026-4.864-6.707-5.12-6.656-7.296.026-.666.64-1.357 2.023-1.536.69-.103 2.56-.154 4.684.819l.845-3.891c-1.152-.41-2.611-.82-4.454-.82-4.736.026-8.039 2.51-8.064 6.093zm20.505-5.735a2.15 2.15 0 00-2.022 1.357l-7.142 17.024h4.992l.998-2.74h6.093l.589 2.74h4.403L82.8 25.835h-4.07zm.717 4.966l1.434 6.912h-3.943l2.51-6.912zm-27.29-4.966l-3.942 18.38h4.762l3.942-18.38h-4.761zm-7.04 0l-4.94 12.518-1.997-10.65c-.23-1.177-1.152-1.868-2.202-1.868h-8.115l-.102.538c1.664.358 3.558.947 4.685 1.561.69.384.896.717 1.126 1.613l3.789 14.669h5.017l7.706-18.381h-4.966z" fill="#fff"/><path d="M58.224 31.57c-.026 2.636 2.355 4.121 4.173 5.017 1.843.896 2.483 1.485 2.457 2.278-.025 1.23-1.485 1.767-2.841 1.792-2.381.026-3.79-.64-4.89-1.152l-.87 4.02c1.1.512 3.148.947 5.299.972 4.992 0 8.269-2.457 8.294-6.297.026-4.864-6.707-5.12-6.656-7.296.026-.666.64-1.357 2.023-1.536.69-.103 2.56-.154 4.684.819l.845-3.891c-1.152-.41-2.611-.82-4.454-.82-4.736.026-8.039 2.51-8.064 6.093zm20.505-5.735a2.15 2.15 0 00-2.022 1.357l-7.142 17.024h4.992l.998-2.74h6.093l.589 2.74h4.403L82.8 25.835h-4.07zm.717 4.966l1.434 6.912h-3.943l2.51-6.912zm-27.29-4.966l-3.942 18.38h4.762l3.942-18.38h-4.761zm-7.04 0l-4.94 12.518-1.997-10.65c-.23-1.177-1.152-1.868-2.202-1.868h-8.115l-.102.538c1.664.358 3.558.947 4.685 1.561.69.384.896.717 1.126 1.613l3.789 14.669h5.017l7.706-18.381h-4.966z" fill="url(#paint0_linear)"/><defs><linearGradient id="paint0_linear" x1="91.2" y1="13.4" x2="48.8" y2="52.2" gradientUnits="userSpaceOnUse"><stop stop-color="#222357"/><stop offset="1" stop-color="#254AA5"/></linearGradient><filter id="filter0_d" x="0" y="0" width="114.4" height="76" filterUnits="userSpaceOnUse" color-interpolation-filters="sRGB"><feFlood flood-opacity="0" result="BackgroundImageFix"/><feColorMatrix in="SourceAlpha" values="0 0 0 0 0 0 0 0 0 0 0 0 0 0 0 0 0 0 127 0"/><feOffset dy="3"/><feGaussianBlur stdDeviation="3"/><feColorMatrix values="0 0 0 0 0.620833 0 0 0 0 0.620833 0 0 0 0 0.620833 0 0 0 0.22 0"/><feBlend in2="BackgroundImageFix" result="effect1_dropShadow"/><feBlend in="SourceGraphic" in2="effect1_dropShadow" result="shape"/></filter></defs></svg>