<svg width="115" height="76" fill="none" xmlns="http://www.w3.org/2000/svg"><g filter="url(#filter0_d)"><rect x="6" y="3" width="102.4" height="64" rx="7" fill="#fff"/></g><g clip-path="url(#clip0)" fill-rule="evenodd" clip-rule="evenodd"><path d="M27.28 24.603c.665-.004 2.64-.184 3.477 2.68.564 1.93 1.462 5.092 2.694 9.484h.502c1.32-4.63 2.228-7.792 2.722-9.483.846-2.895 2.96-2.68 3.805-2.68h6.523v20.585h-6.648V33.057h-.446L36.203 45.19H31.2l-3.707-12.14h-.445v12.14H20.4V24.603h6.88zm29.27 0v12.14h.53l4.508-9.982c.875-1.987 2.74-2.158 2.74-2.158h6.434V45.19h-6.787V33.05h-.53l-4.42 9.982c-.875 1.978-2.829 2.158-2.829 2.158h-6.433V24.603h6.787zm37.671 9.783c-.946 2.721-3.92 4.67-7.211 4.67h-7.118v6.133h-6.454V34.386h20.783z" fill="#0F754E"/><path d="M87.321 24.604H73.1c.338 4.583 4.228 8.506 8.256 8.506H94.67c.768-3.81-1.877-8.506-7.349-8.506z" fill="url(#paint0_linear)"/></g><defs><linearGradient id="paint0_linear" x1="94.8" y1="29.954" x2="73.1" y2="29.954" gradientUnits="userSpaceOnUse"><stop stop-color="#1F5CD7"/><stop offset="1" stop-color="#02AEFF"/></linearGradient><clipPath id="clip0"><path fill="#fff" transform="translate(20.4 24.6)" d="M0 0h74.4v20.8H0z"/></clipPath><filter id="filter0_d" x="0" y="0" width="114.4" height="76" filterUnits="userSpaceOnUse" color-interpolation-filters="sRGB"><feFlood flood-opacity="0" result="BackgroundImageFix"/><feColorMatrix in="SourceAlpha" values="0 0 0 0 0 0 0 0 0 0 0 0 0 0 0 0 0 0 127 0"/><feOffset dy="3"/><feGaussianBlur stdDeviation="3"/><feColorMatrix values="0 0 0 0 0.620833 0 0 0 0 0.620833 0 0 0 0 0.620833 0 0 0 0.22 0"/><feBlend in2="BackgroundImageFix" result="effect1_dropShadow"/><feBlend in="SourceGraphic" in2="effect1_dropShadow" result="shape"/></filter></defs></svg>