<svg width="144" height="16" fill="none" xmlns="http://www.w3.org/2000/svg"><path d="M8 14.666A6.667 6.667 0 108 1.333a6.667 6.667 0 000 13.333zm0-9.333V8m0 2.667h.007" stroke="#EB5757" stroke-width="1.333" stroke-linecap="round" stroke-linejoin="round"/><path d="M27.336 5.004H24.63V12h-.803V5.004h-2.706V4.3h6.215v.704zm2.917 7.051c-.557 0-1.06-.125-1.507-.374a2.809 2.809 0 01-1.056-1.056 2.996 2.996 0 01-.385-1.518c0-.565.129-1.07.385-1.518a2.729 2.729 0 011.056-1.045c.448-.25.95-.374 1.507-.374.558 0 1.06.125 1.507.374.448.25.796.598 1.045 1.045.257.447.385.953.385 1.518 0 .565-.128 1.07-.385 1.518-.25.447-.597.8-1.045 1.056-.447.25-.95.374-1.507.374zm0-.693c.41 0 .778-.092 1.1-.275.33-.19.587-.458.77-.803a2.46 2.46 0 00.275-1.177c0-.44-.091-.832-.275-1.177a1.91 1.91 0 00-.77-.792 2.12 2.12 0 00-1.1-.286c-.41 0-.78.095-1.11.286-.323.183-.58.447-.77.792a2.468 2.468 0 00-.276 1.177c0 .44.092.832.275 1.177.19.345.448.612.77.803.33.183.7.275 1.111.275zm8.181-2.354c.785.183 1.177.656 1.177 1.419 0 .506-.187.895-.56 1.166-.375.271-.932.407-1.673.407H34.75V6.214h2.552c.66 0 1.177.128 1.551.385.374.257.561.623.561 1.1 0 .315-.088.587-.264.814a1.51 1.51 0 01-.715.495zm-2.926-.22h1.738c.448 0 .789-.084 1.023-.253.242-.169.363-.414.363-.737s-.12-.565-.363-.726c-.234-.161-.575-.242-1.023-.242h-1.738v1.958zm1.837 2.596c.5 0 .873-.08 1.122-.242.25-.161.374-.414.374-.759 0-.345-.113-.598-.34-.759-.228-.169-.587-.253-1.079-.253h-1.914v2.013h1.837zm5.978-5.214c.755 0 1.334.19 1.738.572.403.374.605.931.605 1.672V12h-.748v-.902c-.176.3-.437.535-.781.704-.338.169-.74.253-1.21.253-.646 0-1.159-.154-1.54-.462-.382-.308-.572-.715-.572-1.221 0-.491.176-.887.528-1.188.36-.3.927-.451 1.705-.451h1.837v-.352c0-.499-.14-.876-.418-1.133-.279-.264-.686-.396-1.221-.396-.367 0-.719.062-1.056.187a2.586 2.586 0 00-.87.495l-.351-.583a3.05 3.05 0 011.056-.572 3.99 3.99 0 011.298-.209zm-.275 5.269c.44 0 .817-.099 1.133-.297a1.84 1.84 0 00.704-.88v-.946H43.07c-.99 0-1.485.345-1.485 1.034a.96.96 0 00.385.803c.256.19.616.286 1.078.286zm7.568-5.269c.542 0 1.034.125 1.474.374.44.242.784.587 1.034 1.034.25.447.374.957.374 1.529 0 .58-.125 1.093-.374 1.54-.25.447-.594.796-1.034 1.045a2.968 2.968 0 01-1.474.363c-.47 0-.895-.095-1.276-.286a2.463 2.463 0 01-.924-.858v3.223h-.781v-7.92h.748v1.144c.234-.381.542-.675.924-.88a2.758 2.758 0 011.309-.308zm-.055 5.192c.403 0 .77-.092 1.1-.275.33-.19.587-.458.77-.803.19-.345.286-.737.286-1.177 0-.44-.096-.829-.286-1.166a1.982 1.982 0 00-.77-.803 2.159 2.159 0 00-1.1-.286c-.41 0-.781.095-1.111.286a2.08 2.08 0 00-.77.803 2.402 2.402 0 00-.275 1.166c0 .44.091.832.275 1.177.19.345.447.612.77.803.33.183.7.275 1.11.275zm6.464-5.192c.755 0 1.334.19 1.738.572.403.374.605.931.605 1.672V12h-.748v-.902c-.176.3-.437.535-.781.704-.338.169-.741.253-1.21.253-.646 0-1.159-.154-1.54-.462-.382-.308-.572-.715-.572-1.221 0-.491.176-.887.528-1.188.359-.3.927-.451 1.705-.451h1.837v-.352c0-.499-.14-.876-.418-1.133-.279-.264-.686-.396-1.221-.396-.367 0-.719.062-1.056.187a2.586 2.586 0 00-.87.495l-.351-.583a3.05 3.05 0 011.056-.572 3.99 3.99 0 011.298-.209zm-.275 5.269c.44 0 .817-.099 1.133-.297a1.84 1.84 0 00.704-.88v-.946h-1.815c-.99 0-1.485.345-1.485 1.034a.96.96 0 00.385.803c.256.19.616.286 1.078.286zm7.356-5.225h.78v2.563h3.642V6.214h.78V12h-.78V9.448h-3.641V12h-.781V6.214zm12.373 3.135h-4.84c.044.601.275 1.089.693 1.463.418.367.946.55 1.584.55.359 0 .689-.062.99-.187.3-.132.56-.323.78-.572l.44.506a2.47 2.47 0 01-.968.704 3.215 3.215 0 01-1.264.242c-.595 0-1.123-.125-1.585-.374a2.786 2.786 0 01-1.066-1.056 2.995 2.995 0 01-.385-1.518c0-.565.12-1.07.362-1.518a2.72 2.72 0 011.013-1.045c.432-.25.916-.374 1.451-.374.536 0 1.016.125 1.442.374.425.25.758.598 1 1.045.242.44.364.946.364 1.518l-.011.242zm-2.794-2.508c-.558 0-1.027.18-1.409.539-.373.352-.586.814-.638 1.386h4.103c-.05-.572-.267-1.034-.648-1.386-.374-.36-.844-.539-1.409-.539zm8.236.066h-2.19V12h-.78V6.907h-2.19v-.693h5.16v.693zm7.473 2.101c.784.183 1.177.656 1.177 1.419 0 .506-.187.895-.561 1.166-.374.271-.932.407-1.672.407h-2.63V6.214h2.553c.66 0 1.177.128 1.55.385.375.257.562.623.562 1.1 0 .315-.088.587-.264.814-.169.22-.407.385-.715.495zm-2.926-.22h1.738c.447 0 .788-.084 1.023-.253.242-.169.363-.414.363-.737s-.121-.565-.363-.726c-.235-.161-.576-.242-1.023-.242h-1.738v1.958zm1.837 2.596c.498 0 .872-.08 1.122-.242.249-.161.374-.414.374-.759 0-.345-.114-.598-.341-.759-.228-.169-.587-.253-1.078-.253h-1.914v2.013h1.837zm6.755-5.17h.78v2.563h3.642V6.214h.781V12h-.781V9.448H95.84V12h-.781V6.214zm9.304-.044c.755 0 1.334.19 1.738.572.403.374.605.931.605 1.672V12h-.748v-.902c-.176.3-.437.535-.781.704-.338.169-.741.253-1.21.253-.646 0-1.159-.154-1.54-.462-.382-.308-.572-.715-.572-1.221 0-.491.176-.887.528-1.188.359-.3.927-.451 1.705-.451h1.837v-.352c0-.499-.14-.876-.418-1.133-.279-.264-.686-.396-1.221-.396a3.02 3.02 0 00-1.056.187 2.58 2.58 0 00-.869.495l-.352-.583c.293-.25.645-.44 1.056-.572a3.99 3.99 0 011.298-.209zm-.275 5.269c.44 0 .817-.099 1.133-.297a1.84 1.84 0 00.704-.88v-.946h-1.815c-.99 0-1.485.345-1.485 1.034a.96.96 0 00.385.803c.256.19.616.286 1.078.286zm9.317-5.225V12h-.781V6.907h-2.772l-.077 1.43c-.059 1.203-.198 2.127-.418 2.772-.22.645-.612.968-1.177.968a2.27 2.27 0 01-.561-.088l.055-.671c.132.03.224.044.275.044.301 0 .528-.14.682-.418.154-.279.257-.623.308-1.034.051-.41.095-.953.132-1.628l.099-2.068h4.235zm2.11 0h.781v4.598l3.861-4.598h.693V12h-.781V7.402L116.22 12h-.704V6.214zm11.83 0V12h-.781V9.591c-.667.293-1.323.44-1.969.44-.696 0-1.239-.158-1.628-.473-.388-.323-.583-.803-.583-1.441V6.214h.781v1.859c0 .433.14.763.418.99.279.22.664.33 1.155.33.543 0 1.152-.143 1.826-.429v-2.75h.781zm2.108 0h.781v4.598l3.861-4.598h.693V12h-.781V7.402L130.158 12h-.704V6.214zm7.463 0h.781v4.598l3.861-4.598h.693V12h-.781V7.402L137.621 12h-.704V6.214z" fill="#EB5757"/></svg>