<svg width="82" height="16" fill="none" xmlns="http://www.w3.org/2000/svg"><path d="M14.667 7.386V8a6.667 6.667 0 11-3.953-6.094" stroke="#219653" stroke-width="1.333" stroke-linecap="round" stroke-linejoin="round"/><path d="M14.667 2.667L8 9.34l-2-2" stroke="#219653" stroke-width="1.333" stroke-linecap="round" stroke-linejoin="round"/><path d="M26.863 8.029c.535.11.942.326 1.221.649.279.315.418.73.418 1.243 0 .667-.238 1.18-.715 1.54-.47.36-1.162.539-2.079.539h-3.41V4.3h3.201c.821 0 1.463.169 1.925.506.462.337.693.825.693 1.463 0 .433-.11.8-.33 1.1-.22.293-.528.513-.924.66zm-3.762-.242h2.354c.594 0 1.049-.121 1.364-.363.323-.242.484-.594.484-1.056 0-.462-.161-.814-.484-1.056-.315-.242-.77-.363-1.364-.363h-2.354v2.838zm2.607 3.564c1.327 0 1.991-.495 1.991-1.485 0-.968-.664-1.452-1.991-1.452h-2.607v2.937h2.607zm7.301-5.137h.781v2.563h3.641V6.214h.781V12h-.78V9.448H33.79V12h-.78V6.214zm9.304-.044c.755 0 1.335.19 1.738.572.403.374.605.931.605 1.672V12h-.748v-.902a1.79 1.79 0 01-.781.704c-.337.169-.74.253-1.21.253-.645 0-1.159-.154-1.54-.462-.381-.308-.572-.715-.572-1.221 0-.491.176-.887.528-1.188.36-.3.928-.451 1.705-.451h1.837v-.352c0-.499-.14-.876-.418-1.133-.279-.264-.686-.396-1.221-.396-.367 0-.719.062-1.056.187a2.587 2.587 0 00-.869.495l-.352-.583a3.05 3.05 0 011.056-.572 3.99 3.99 0 011.298-.209zm-.275 5.269c.44 0 .818-.099 1.133-.297a1.84 1.84 0 00.704-.88v-.946H42.06c-.99 0-1.485.345-1.485 1.034a.96.96 0 00.385.803c.257.19.616.286 1.078.286zm9.317-5.225V12h-.78V6.907h-2.773l-.077 1.43c-.059 1.203-.198 2.127-.418 2.772-.22.645-.612.968-1.177.968-.154 0-.34-.03-.56-.088l.054-.671c.132.03.224.044.275.044.3 0 .528-.14.682-.418.154-.279.257-.623.308-1.034.051-.41.095-.953.132-1.628l.1-2.068h4.234zm2.11 0h.781v4.598l3.861-4.598h.693V12h-.78V7.402L54.17 12h-.705V6.214zm11.83 0V12h-.78V9.591c-.668.293-1.324.44-1.97.44-.696 0-1.239-.158-1.628-.473-.388-.323-.583-.803-.583-1.441V6.214h.781v1.859c0 .433.14.763.418.99.28.22.664.33 1.155.33.543 0 1.152-.143 1.826-.429v-2.75h.782zm2.108 0h.781v4.598l3.862-4.598h.692V12h-.78V7.402L68.108 12h-.705V6.214zm7.464 0h.78v4.598l3.862-4.598h.693V12h-.781V7.402L75.57 12h-.704V6.214z" fill="#219653"/></svg>