<svg width="28" height="28" fill="none" xmlns="http://www.w3.org/2000/svg"><g opacity=".5" fill-rule="evenodd" clip-rule="evenodd" fill="#fff"><path d="M14 0C6.268 0 0 6.268 0 14s6.268 14 14 14 14-6.268 14-14S21.732 0 14 0zm-3.208 6.27c.83-.038 1.095-.048 3.207-.048h-.002c2.113 0 2.377.01 3.206.047.829.038 1.394.17 1.89.362.512.198.945.464 1.377.897.433.432.699.866.898 1.377.191.495.322 1.06.361 1.888.038.83.047 1.095.047 3.207s-.01 2.377-.047 3.206c-.039.828-.17 1.393-.361 1.888-.2.512-.465.946-.898 1.378a3.806 3.806 0 01-1.377.898c-.494.192-1.06.323-1.888.36-.83.039-1.094.048-3.207.048-2.112 0-2.377-.01-3.207-.047-.827-.038-1.393-.17-1.888-.361a3.81 3.81 0 01-1.377-.898 3.811 3.811 0 01-.897-1.378c-.192-.495-.323-1.06-.361-1.888-.038-.83-.047-1.094-.047-3.206s.01-2.377.047-3.207c.037-.828.168-1.393.36-1.888.2-.511.466-.945.899-1.377a3.809 3.809 0 011.377-.897c.495-.193 1.06-.324 1.888-.362z"/><path d="M13.319 7.78H14c2.026 0 2.266.007 3.067.043.74.034 1.141.157 1.409.261.354.138.607.302.872.568.266.266.43.519.568.873.104.267.228.669.261 1.41.037.8.045 1.04.045 3.066 0 2.025-.008 2.266-.045 3.066-.033.74-.157 1.142-.26 1.41a2.346 2.346 0 01-.569.871c-.265.266-.518.43-.872.568-.267.104-.67.228-1.41.261-.8.037-1.04.045-3.066.045-2.027 0-2.267-.008-3.067-.045-.74-.034-1.142-.157-1.41-.261a2.351 2.351 0 01-.873-.568 2.353 2.353 0 01-.568-.872c-.104-.268-.227-.67-.261-1.41-.036-.8-.044-1.04-.044-3.067s.008-2.267.044-3.067c.034-.74.157-1.142.261-1.41.138-.353.303-.606.568-.872.266-.266.519-.43.873-.568.268-.105.67-.228 1.41-.262.7-.032.971-.041 2.386-.043v.002zm4.568 1.553a.778.778 0 100 1.556.778.778 0 000-1.556zM10.11 14a3.89 3.89 0 117.78 0 3.89 3.89 0 01-7.78 0z"/><path d="M13.997 11.667a2.333 2.333 0 110 4.667 2.333 2.333 0 010-4.667z"/></g></svg>