<svg width="26" height="34" fill="none" xmlns="http://www.w3.org/2000/svg"><path d="M18.309 0H1.159C.682 0 .295.398.295 1.17v32.223c0 .21.387.607.864.607h23.68c.478 0 .865-.398.865-.607V7.879c0-.422-.055-.558-.152-.658L18.676.156A.515.515 0 0018.31 0z" fill="#E9E9E0"/><path d="M18.613.092v7.194h7.002L18.613.092z" fill="#D9D7CA"/><path d="M7.984 20.233a.932.932 0 01-.57-.198c-.616-.474-.699-1.002-.66-1.361.108-.989 1.297-2.023 3.537-3.077.889-2.002 1.734-4.467 2.238-6.527-.59-1.319-1.163-3.03-.745-4.034.147-.351.33-.62.67-.737.135-.046.475-.105.6-.105.298 0 .56.394.746.637.174.229.57.712-.22 4.13.796 1.69 1.924 3.412 3.006 4.591.774-.144 1.441-.217 1.984-.217.925 0 1.486.221 1.715.678.189.378.112.82-.23 1.312-.33.472-.784.723-1.312.723-.719 0-1.556-.467-2.489-1.388a27.777 27.777 0 00-5.216 1.714c-.494 1.077-.968 1.944-1.408 2.58-.606.872-1.128 1.279-1.646 1.279zm1.573-3.113c-1.262.73-1.777 1.329-1.814 1.666-.006.056-.022.203.254.42.089-.028.603-.269 1.56-2.086zm8.059-2.697c.481.381.599.574.914.574.138 0 .532-.006.715-.268a.972.972 0 00.136-.252c-.073-.04-.17-.12-.695-.12a8.17 8.17 0 00-1.07.067zm-4.414-3.996a44.105 44.105 0 01-1.58 4.593 28.936 28.936 0 013.838-1.227c-.798-.952-1.595-2.14-2.258-3.366zm-.359-5.137c-.058.02-.786 1.066.057 1.952.56-1.284-.032-1.96-.057-1.952zM24.84 34H1.16a.877.877 0 01-.865-.888v-9.433h25.409v9.433c0 .49-.387.888-.864.888z" fill="#CC4B4C"/><path d="M6.727 32.178h-.97v-6.117H7.47c.253 0 .504.04.751.124.248.083.47.208.667.373.197.166.356.367.477.602.12.235.182.5.182.793 0 .31-.052.59-.154.843a1.762 1.762 0 01-.428.635 1.92 1.92 0 01-.663.398c-.258.094-.544.14-.856.14h-.72v2.21h.001zm0-5.362v2.424h.89c.117 0 .234-.021.35-.063a.883.883 0 00.32-.203.999.999 0 00.234-.394 1.914 1.914 0 00.048-.971.986.986 0 00-.517-.672c-.15-.08-.35-.12-.598-.12h-.727v-.001zm8.766 2.134c0 .503-.053.933-.158 1.29a3.253 3.253 0 01-.4.897c-.162.24-.344.43-.546.569a2.71 2.71 0 01-.585.311c-.189.07-.361.114-.517.133a3.355 3.355 0 01-.348.028h-2.254v-6.117h1.794c.501 0 .941.081 1.32.244.38.163.696.38.946.652.25.27.437.58.562.925.123.346.186.702.186 1.067zm-2.876 2.498c.657 0 1.13-.216 1.421-.648.291-.431.437-1.056.437-1.876 0-.254-.03-.506-.09-.755a1.631 1.631 0 00-.342-.676c-.17-.202-.4-.366-.691-.49-.291-.125-.668-.187-1.131-.187h-.566v4.632h.962zm5.267-4.632v1.926h2.488v.68h-2.488v2.756h-.986v-6.117h3.724v.755h-2.738z" fill="#fff"/></svg>