<svg width="14" height="14" fill="none" xmlns="http://www.w3.org/2000/svg"><path d="M13 9.984v1.807a1.202 1.202 0 01-.82 1.146c-.16.053-.328.073-.496.058a11.955 11.955 0 01-5.207-1.848 11.754 11.754 0 01-3.62-3.613 11.902 11.902 0 01-1.852-5.221A1.202 1.202 0 012.205 1h1.81a1.208 1.208 0 011.207 1.036 7.72 7.72 0 00.423 1.692 1.202 1.202 0 01-.272 1.27l-.766.765a9.644 9.644 0 003.62 3.613l.766-.765a1.207 1.207 0 011.273-.27 7.76 7.76 0 001.696.42A1.208 1.208 0 0113 9.985z" stroke="#F2F2F2" stroke-width="1.2" stroke-linecap="round" stroke-linejoin="round"/></svg>