<svg width="77" height="16" fill="none" xmlns="http://www.w3.org/2000/svg"><g clip-path="url(#clip0)"><path d="M11 6.267l-6-3.46M8 14.72V8m6 2.667V5.334a1.333 1.333 0 00-.667-1.154L8.667 1.514a1.333 1.333 0 00-1.334 0L2.667 4.18A1.333 1.333 0 002 5.334v5.333a1.333 1.333 0 00.667 1.153l4.666 2.667a1.333 1.333 0 001.334 0l4.666-2.667A1.333 1.333 0 0014 10.667z" stroke="#F2994A" stroke-width="1.333" stroke-linecap="round" stroke-linejoin="round"/><path d="M2.18 4.64L8 8.006l5.82-3.366" stroke="#F2994A" stroke-width="1.333" stroke-linecap="round" stroke-linejoin="round"/><path d="M28.777 4.3V12h-.803V5.004h-4.873V12h-.803V4.3h6.479zm4.688 7.755c-.557 0-1.06-.125-1.507-.374a2.809 2.809 0 01-1.056-1.056 2.996 2.996 0 01-.385-1.518c0-.565.128-1.07.385-1.518a2.729 2.729 0 011.056-1.045c.448-.25.95-.374 1.507-.374.557 0 1.06.125 1.507.374.447.25.796.598 1.045 1.045.257.447.385.953.385 1.518 0 .565-.128 1.07-.385 1.518-.25.447-.598.8-1.045 1.056-.447.25-.95.374-1.507.374zm0-.693c.41 0 .777-.092 1.1-.275.33-.19.587-.458.77-.803a2.46 2.46 0 00.275-1.177c0-.44-.091-.832-.275-1.177a1.91 1.91 0 00-.77-.792 2.12 2.12 0 00-1.1-.286c-.41 0-.78.095-1.11.286-.323.183-.58.447-.77.792a2.468 2.468 0 00-.276 1.177c0 .44.092.832.275 1.177.19.345.448.612.77.803.33.183.7.275 1.111.275zm10.107-.044v2.079h-.737V12h-5.18v1.397h-.738v-2.079h.33c.389-.022.653-.308.792-.858.14-.55.235-1.32.286-2.31l.077-1.936h4.268v5.104h.902zM39.04 8.194c-.037.821-.106 1.5-.209 2.035-.103.528-.286.891-.55 1.089h3.608V6.907h-2.783l-.066 1.287zm11.529.792c.41.095.726.26.946.495.227.235.341.52.341.858 0 .337-.117.638-.352.902-.227.264-.539.47-.935.616-.396.14-.832.209-1.309.209a4.39 4.39 0 01-1.232-.176 3.265 3.265 0 01-1.056-.539l.264-.583c.264.198.572.352.924.462.352.11.708.165 1.067.165.535 0 .972-.099 1.309-.297.345-.205.517-.48.517-.825 0-.308-.14-.546-.418-.715-.279-.176-.66-.264-1.144-.264h-.99v-.572h.946c.433 0 .781-.08 1.045-.242.264-.169.396-.392.396-.671 0-.308-.15-.55-.451-.726-.293-.176-.678-.264-1.155-.264a3.98 3.98 0 00-1.848.473l-.22-.605a4.584 4.584 0 012.145-.539c.44 0 .836.066 1.188.198.36.125.638.304.836.539.205.235.308.506.308.814 0 .293-.103.554-.308.781-.198.227-.47.396-.814.506zM55.51 6.17c.755 0 1.335.19 1.738.572.403.374.605.931.605 1.672V12h-.748v-.902a1.79 1.79 0 01-.781.704c-.337.169-.74.253-1.21.253-.645 0-1.159-.154-1.54-.462-.381-.308-.572-.715-.572-1.221 0-.491.176-.887.528-1.188.36-.3.928-.451 1.705-.451h1.837v-.352c0-.499-.14-.876-.418-1.133-.279-.264-.686-.396-1.221-.396-.367 0-.719.062-1.056.187a2.587 2.587 0 00-.869.495l-.352-.583a3.05 3.05 0 011.056-.572 3.99 3.99 0 011.298-.209zm-.275 5.269c.44 0 .818-.099 1.133-.297a1.84 1.84 0 00.704-.88v-.946h-1.815c-.99 0-1.485.345-1.485 1.034a.96.96 0 00.385.803c.257.19.616.286 1.078.286zm6.688-2.013h-1.32V12h-.78V6.214h.78v2.541h1.331l2.035-2.541h.847L62.54 9.019 64.981 12h-.924l-2.134-2.574zm6.064-3.256c.756 0 1.335.19 1.738.572.404.374.605.931.605 1.672V12h-.748v-.902c-.176.3-.436.535-.78.704-.338.169-.741.253-1.21.253-.646 0-1.16-.154-1.54-.462-.382-.308-.573-.715-.573-1.221 0-.491.176-.887.528-1.188.36-.3.928-.451 1.705-.451h1.837v-.352c0-.499-.14-.876-.418-1.133-.278-.264-.685-.396-1.22-.396-.367 0-.72.062-1.057.187a2.586 2.586 0 00-.869.495l-.352-.583a3.05 3.05 0 011.056-.572c.41-.14.844-.209 1.298-.209zm-.275 5.269c.44 0 .818-.099 1.133-.297.316-.205.55-.499.704-.88v-.946h-1.815c-.99 0-1.485.345-1.485 1.034a.96.96 0 00.385.803c.257.19.616.286 1.078.286zm7.285-2.453c.41.095.726.26.946.495.228.235.341.52.341.858 0 .337-.117.638-.352.902-.227.264-.539.47-.935.616-.396.14-.832.209-1.309.209a4.39 4.39 0 01-1.232-.176 3.265 3.265 0 01-1.056-.539l.264-.583c.264.198.572.352.924.462.352.11.708.165 1.067.165.535 0 .972-.099 1.31-.297.344-.205.516-.48.516-.825 0-.308-.14-.546-.418-.715-.279-.176-.66-.264-1.144-.264h-.99v-.572h.946c.433 0 .781-.08 1.045-.242.264-.169.396-.392.396-.671 0-.308-.15-.55-.45-.726-.294-.176-.68-.264-1.156-.264a3.98 3.98 0 00-1.848.473l-.22-.605a4.583 4.583 0 012.145-.539c.44 0 .836.066 1.188.198.36.125.638.304.836.539a1.2 1.2 0 01.308.814c0 .293-.103.554-.308.781-.198.227-.47.396-.814.506z" fill="#F2994A"/></g><defs><clipPath id="clip0"><path fill="#fff" d="M0 0h77v16H0z"/></clipPath></defs></svg>