<svg width="28" height="28" fill="none" xmlns="http://www.w3.org/2000/svg"><path fill-rule="evenodd" clip-rule="evenodd" d="M0 14C0 6.268 6.268 0 14 0s14 6.268 14 14-6.268 14-14 14S0 21.732 0 14zm14.732 4.594s.27-.029.408-.175c.126-.133.122-.385.122-.385s-.017-1.175.539-1.348c.548-.17 1.251 1.136 1.998 1.639.563.38.991.297.991.297l1.995-.028s1.043-.063.549-.868c-.041-.066-.289-.596-1.483-1.684-1.251-1.14-1.083-.955.423-2.926.917-1.2 1.284-1.933 1.17-2.246-.11-.3-.784-.22-.784-.22l-2.246.014s-.166-.023-.29.05c-.12.07-.198.236-.198.236s-.355.929-.83 1.719c-1 1.666-1.399 1.754-1.562 1.65-.38-.24-.286-.968-.286-1.485 0-1.616.25-2.289-.486-2.463-.244-.058-.423-.096-1.048-.103-.801-.007-1.479.003-1.863.188-.256.122-.453.396-.332.412.148.02.484.089.662.327.23.307.222.997.222.997s.132 1.901-.309 2.137c-.302.162-.717-.168-1.609-1.68a13.94 13.94 0 01-.801-1.63s-.067-.16-.186-.246c-.144-.104-.344-.137-.344-.137l-2.134.014s-.32.008-.438.145c-.105.122-.008.373-.008.373s1.67 3.837 3.562 5.77c1.735 1.773 3.704 1.656 3.704 1.656h.892z" fill="#fff" opacity=".5"/></svg>