<svg width="28" height="28" fill="none" xmlns="http://www.w3.org/2000/svg"><g opacity=".5" fill-rule="evenodd" clip-rule="evenodd" fill="#fff"><path d="M0 14C0 6.268 6.268 0 14 0s14 6.268 14 14-6.268 14-14 14S0 21.732 0 14zm21.155-3.457a1.896 1.896 0 00-1.32-1.356C18.67 8.867 14 8.867 14 8.867s-4.67 0-5.834.32a1.896 1.896 0 00-1.32 1.356c-.313 1.195-.313 3.69-.313 3.69s0 2.495.312 3.691c.172.66.678 1.18 1.32 1.356C9.33 19.6 14 19.6 14 19.6s4.67 0 5.834-.32a1.896 1.896 0 001.32-1.356c.313-1.196.313-3.69.313-3.69s0-2.496-.312-3.691z"/><path d="M12.6 16.8v-4.667l3.733 2.333L12.6 16.8z"/></g></svg>