<svg width="77" height="77" fill="none" xmlns="http://www.w3.org/2000/svg"><g filter="url(#filter0_d)"><rect x="6" y="3" width="65" height="65" rx="6" fill="#fff"/></g><path d="M52.92 35.61l-3-7A1 1 0 0049 28h-3v-2a1 1 0 00-1-1H26a1 1 0 00-1 1v17a1 1 0 001 1h2.14a4 4 0 007.72 0h6.28a4 4 0 007.72 0H52a1 1 0 001-1v-7c0-.134-.028-.267-.08-.39zM46 30h2.34l2.14 5H46v-5zM32 45a2 2 0 110-4 2 2 0 010 4zm10.14-3h-6.28a4 4 0 00-7.72 0H27V27h17v12.56A3.999 3.999 0 0042.14 42zM46 45a2 2 0 110-4 2 2 0 010 4zm5-3h-1.14A4 4 0 0046 39v-2h5v5z" fill="#01274F"/><defs><filter id="filter0_d" x="0" y="0" width="77" height="77" filterUnits="userSpaceOnUse" color-interpolation-filters="sRGB"><feFlood flood-opacity="0" result="BackgroundImageFix"/><feColorMatrix in="SourceAlpha" values="0 0 0 0 0 0 0 0 0 0 0 0 0 0 0 0 0 0 127 0"/><feOffset dy="3"/><feGaussianBlur stdDeviation="3"/><feColorMatrix values="0 0 0 0 0.620833 0 0 0 0 0.620833 0 0 0 0 0.620833 0 0 0 0.22 0"/><feBlend in2="BackgroundImageFix" result="effect1_dropShadow"/><feBlend in="SourceGraphic" in2="effect1_dropShadow" result="shape"/></filter></defs></svg>