<svg width="77" height="77" fill="none" xmlns="http://www.w3.org/2000/svg"><g filter="url(#filter0_d)"><rect x="6" y="3" width="65" height="65" rx="6" fill="#fff"/></g><path d="M53 41H25v2h28v-2zm0 4H25v2h28v-2zm-6-16a2 2 0 100 4 2 2 0 000-4zm-8 6a4 4 0 110-8 4 4 0 010 8zm0-6a2 2 0 100 4 2 2 0 000-4zm-8 0a2 2 0 100 4 2 2 0 000-4z" fill="#01274F"/><path d="M51 39H27a2.005 2.005 0 01-2-2V25a2.005 2.005 0 012-2h24a2.005 2.005 0 012 2v12a2.003 2.003 0 01-2 2zm0-14H27v12h24V25z" fill="#01274F"/><defs><filter id="filter0_d" x="0" y="0" width="77" height="77" filterUnits="userSpaceOnUse" color-interpolation-filters="sRGB"><feFlood flood-opacity="0" result="BackgroundImageFix"/><feColorMatrix in="SourceAlpha" values="0 0 0 0 0 0 0 0 0 0 0 0 0 0 0 0 0 0 127 0"/><feOffset dy="3"/><feGaussianBlur stdDeviation="3"/><feColorMatrix values="0 0 0 0 0.620833 0 0 0 0 0.620833 0 0 0 0 0.620833 0 0 0 0.22 0"/><feBlend in2="BackgroundImageFix" result="effect1_dropShadow"/><feBlend in="SourceGraphic" in2="effect1_dropShadow" result="shape"/></filter></defs></svg>