<svg width="150" height="30" fill="none" xmlns="http://www.w3.org/2000/svg"><path fill-rule="evenodd" clip-rule="evenodd" d="M142.698 8.508H131.04V19.66l1.74 3.946h4.275v-4.583h3.53c.472 0 .87.05 1.168.147.299.098.522.245.696.466.149.22.249.514.299.882.024.319.049.613.049.907 0 .294 0 .564.025.833 0 .27.05.515.075.735.05.221.124.442.223.613h6.587v-.245c-.223-.122-.397-.343-.497-.662a5.057 5.057 0 01-.198-1.25c-.025-.514-.075-1.127-.1-1.862-.025-.441-.05-.809-.099-1.127a3.317 3.317 0 00-.274-.883c-.124-.245-.323-.466-.547-.662-.248-.196-.571-.367-.969-.539.522-.196.969-.49 1.342-.857a3.47 3.47 0 00.845-1.3c.199-.49.299-1.053.299-1.642 0-.735-.15-1.372-.448-1.936a3.388 3.388 0 00-1.292-1.348c-.473-.294-1.144-.49-1.989-.612-.87-.123-1.889-.172-3.082-.172zM8.845 1.94c-7.407 3.7-10.39 12.597-6.637 19.9 3.754 7.304 12.777 10.22 20.184 6.52 7.407-3.7 10.39-12.598 6.637-19.901-3.754-7.303-12.777-10.22-20.184-6.52zm128.21 13.087v-2.696h3.306c.572 0 1.069.025 1.442.098.373.05.671.197.87.368.199.196.298.466.298.858 0 .367-.099.662-.273.858-.174.196-.472.343-.82.416a7.042 7.042 0 01-1.367.123h-3.456v-.025zm-18.418 3.383l1.939-5.319 1.839 5.319h-3.778zm-8.302 5.195h6.338l.547-1.495h6.512l.497 1.495h6.413l-6.164-15.097h-7.532l-6.611 15.097zm-19.264-4.607c.025 2.401 1.84 3.799 4.002 4.436 1.317.392 2.933.588 4.872.612 2.336 0 4.275-.171 5.816-.539 1.541-.367 2.685-.956 3.455-1.74.771-.784 1.143-1.814 1.143-3.063 0-1.25-.422-2.23-1.242-2.966-.845-.735-2.088-1.2-3.779-1.446l-5.393-.76a18.312 18.312 0 01-1.268-.22c-.323-.074-.597-.196-.746-.319-.174-.122-.248-.294-.248-.515 0-.294.174-.539.546-.71.373-.172.895-.27 1.616-.27.92 0 1.616.123 2.113.368.497.245.771.588.845 1.078h6.885c-.074-1.127-.497-2.034-1.218-2.745-.72-.71-1.789-1.225-3.181-1.544-1.392-.319-3.132-.49-5.195-.49-1.989 0-3.654.171-4.947.49-1.292.319-2.287.858-2.908 1.569-.646.71-.945 1.642-.945 2.794 0 1.274.473 2.279 1.392 3.039.92.76 2.312 1.225 4.127 1.47l4.424.54c.696.097 1.243.22 1.591.416.348.196.522.466.522.784 0 .368-.199.637-.597.809-.397.172-.994.27-1.789.27-.821 0-1.442-.123-1.914-.343-.448-.221-.721-.54-.77-.932h-7.21v-.073zm-13.497 4.607h14.069c-1.492-.907-2.287-2.45-2.461-4.583h-5.668V8.508h-5.94v15.097zM63.579 8.508h-5.916v7.916c0 1.74.324 3.162.97 4.29.646 1.127 1.64 1.96 2.983 2.475 1.342.539 3.032.808 5.095.808 2.063 0 3.754-.27 5.096-.784 1.342-.54 2.312-1.372 2.958-2.475.646-1.128.97-2.55.97-4.314V8.508h-5.917v7.377c0 .71-.05 1.324-.149 1.838-.1.515-.248.931-.497 1.25a1.97 1.97 0 01-.944.71c-.398.148-.92.221-1.517.221-.596 0-1.118-.073-1.516-.22a2.168 2.168 0 01-.97-.71c-.223-.32-.397-.736-.496-1.25-.1-.515-.15-1.128-.15-1.839V8.508zM47.1 11.743c.597 0 1.07.05 1.467.147.373.098.671.245.845.49.174.245.273.564.273 1.005 0 .441-.099.76-.273 1.005-.174.245-.472.417-.845.49-.373.098-.87.147-1.467.123h-3.256v-3.26H47.1zm-9.172 11.862h5.916v-5.294h5.518c1.467 0 2.685-.196 3.704-.588.994-.392 1.765-.956 2.287-1.666.522-.736.77-1.618.77-2.647 0-1.03-.273-1.887-.77-2.623-.522-.735-1.268-1.274-2.287-1.666-.994-.392-2.237-.588-3.704-.588H37.927v15.072z" fill="#0066B3"/><path fill-rule="evenodd" clip-rule="evenodd" d="M10.71 26.228c6.886 2.892 14.914-.147 17.798-6.74.522-1.201.87-2.451.994-3.774L13.47 19.929l-2.76 6.299zm18.867-11.666a13.103 13.103 0 00-.995-5.172c-1.416-3.382-4.101-5.93-7.308-7.303l-3.38 7.696-16.206 3.823v1.005a2645.5 2645.5 0 0127.889-.05z" fill="#fff"/></svg>