<svg width="46" height="45" fill="none" xmlns="http://www.w3.org/2000/svg"><g clip-path="url(#clip0)" fill-rule="evenodd" clip-rule="evenodd"><path d="M22.945.3c12.106 0 21.988 9.883 21.988 21.989 0 12.106-9.882 21.989-21.988 21.989-12.129 0-22.011-9.883-22.011-21.99C.934 10.184 10.817.3 22.944.3z" fill="#DB812E"/><path d="M14.998 25.26c-.154.462-.594.705-1.232.705-.947 0-1.497-.595-1.52-1.673h6.142v-.22c0-3.17-1.761-5.04-4.689-5.04-2.927 0-4.732 1.76-4.732 4.577 0 2.686 1.761 4.447 4.623 4.447 2.53 0 4.094-.969 4.534-2.796h-3.126zm-2.861-2.663c.044-.99.55-1.563 1.365-1.563.902 0 1.386.528 1.452 1.563h-2.817zm21.702.947c0 2.795 1.828 4.512 4.843 4.512 3.037 0 4.864-1.717 4.864-4.512 0-2.796-1.827-4.513-4.864-4.513-3.015 0-4.843 1.717-4.843 4.513zm3.434 0c0-1.497.374-2.18 1.409-2.18 1.035 0 1.43.683 1.43 2.18 0 1.496-.395 2.178-1.43 2.178s-1.409-.682-1.409-2.178zm-5.459 1.1v-3.367H33.4v-1.938h-1.585v-2.597H28.47v2.597h-1.19v1.938h1.189v4.225c0 1.805.792 2.4 2.861 2.4.66 0 1.365-.022 2.091-.066v-2.443c-.176.021-.33.021-.484.021-.814 0-1.123-.176-1.123-.77zm-13.096.462c.154 1.982 1.541 2.95 4.204 2.95 2.861 0 4.337-.991 4.337-2.906 0-1.827-1.123-2.29-3.566-2.861-1.035-.242-1.563-.242-1.563-.837 0-.374.286-.594.88-.594.594 0 .99.33 1.035.836h2.927c-.197-1.76-1.54-2.663-4.006-2.663-2.64 0-4.028.99-4.028 2.774 0 1.782 1.189 2.244 3.72 2.795.902.22 1.365.264 1.365.88 0 .44-.375.704-1.057.704-.726 0-1.078-.352-1.078-1.078h-3.17zm-11.82-.462v-3.367h1.585v-1.938H6.898v-2.597H3.553v2.597H2.342v1.938h1.21v4.225c0 1.805.77 2.4 2.862 2.4.66 0 1.365-.022 2.09-.066v-2.443c-.153.021-.33.021-.461.021-.815 0-1.145-.176-1.145-.77z" fill="#fff"/></g><defs><clipPath id="clip0"><path fill="#fff" transform="translate(.898)" d="M0 0h44.182v45H0z"/></clipPath></defs></svg>