<svg width="59" height="45" fill="none" xmlns="http://www.w3.org/2000/svg"><path d="M5.316 28.693l-5 9.575h7.33L8.95 35.58c4.11 5.262 10.593 8.645 17.878 8.645 8.66 0 16.15-4.78 19.919-11.772l3.885 5.894h7.158V13.855h-6.556v13.31l-2.023-2.917c.054-.66.099-1.31.099-1.977a21.52 21.52 0 00-3.507-11.772h11.996V5.448H41.28C37.367 2.24 32.331.308 26.828.308c-12.42 0-22.492 9.83-22.492 21.972 0 2.231.342 4.383.98 6.413zm3.634 6.896a21.88 21.88 0 01-3.634-6.896l7.743-14.83h7.15l-5.944 11.272h6.034v6.053H11.08l-2.131 4.4zm21.178 2.68h-6.547v-27.77h-8.013l2.159-5.051h23.561a22.051 22.051 0 014.524 5.051H30.128v27.77zm16.61-5.816l-5.162-7.81v13.634h-7.41V13.855h7.842l7.194 10.393a21.066 21.066 0 01-2.464 8.205z" fill="#EF3B2D"/><path d="M46.738 32.453l-5.162-7.81v13.635h-7.41V13.855h7.842l7.194 10.393a21.063 21.063 0 01-2.464 8.205zM8.95 35.59a21.88 21.88 0 01-3.634-6.896l7.743-14.829h7.15l-5.945 11.271H20.3v6.053h-9.22L8.95 35.59zm21.178 2.68h-6.547V10.5h-8.013l2.159-5.05h23.561a22.053 22.053 0 014.524 5.05H30.128v27.77z" fill="#fff"/></svg>