<svg width="106" height="30" fill="none" xmlns="http://www.w3.org/2000/svg"><g clip-path="url(#clip0)"><path d="M22.817 15.052h5.767c1.562 0 1.538 0 1.393 1.562-.168 2.042-.744 3.965-1.754 5.695-1.682 2.883-4.109 5.118-7.209 6.416-1.826.769-3.796 1.081-5.839 1.057-2.547-.048-4.974-.48-7.137-1.802-2.114-1.274-3.82-2.932-5.262-5.046C.276 19.28.253 15.292.974 11.255c.384-2.163 1.634-4.109 3.1-5.791C5.418 3.926 7.1 2.82 8.878 1.835 10.513.922 12.34.634 14.118.465c3.725-.36 7.137.746 10.14 2.884 1.01.721 1.85 1.779 2.692 2.764 1.514 1.778 2.162 3.869 2.883 5.96.36 1.056.169 1.345-.96 1.345-1.755 0-3.533 0-5.287.024-.673 0-.986-.168-1.202-.937-.649-2.187-2.259-3.557-4.325-4.422-3.148-1.321-5.936-.36-8.29 1.754-.914.841-1.587 2.139-1.875 3.437-.577 2.57.024 4.998 1.682 6.896 1.13 1.274 2.716 2.283 4.662 2.475 2.62.24 4.806-.552 6.608-2.379.168-.168.529-.336.385-.672-.145-.337-.48-.217-.745-.217-1.394-.024-2.812-.048-4.206 0-.72.024-1.033-.216-.985-.961.048-.6.048-1.201.024-1.802-.072-1.61-.048-1.538 1.586-1.538 1.995 0 3.941 0 5.912-.024 0 .024 0 .024 0 0z" fill="#D72A23"/><path d="M62.393 19.257v-8.77c0-.553.024-.914.745-.914 5.166.072 10.332-.192 15.499.144 2.21.145 3.724 1.538 4.998 3.413 1.201 1.802 1.61 3.772 1.682 5.719.072 2.09-.24 4.253-1.49 6.2-1.85 2.907-4.493 3.892-7.713 3.916-4.158.024-8.339-.024-12.496.024-.937 0-1.225-.24-1.201-1.201.024-2.836-.024-5.695-.024-8.53zm6.464-.192c0 1.442.048 2.884-.024 4.325-.025.697.216.89.865.866 1.994-.049 3.989-.049 6.007-.073 1.37-.024 2.307-.793 2.836-2.066.648-1.514.504-3.1.288-4.566-.288-1.994-1.057-3.412-3.917-3.484-1.754-.048-3.532 0-5.286-.024-.65-.024-.793.216-.793.84.048 1.395.024 2.788.024 4.182zm18.841.145c0-2.932.024-5.84-.024-8.771 0-.649.12-.89.84-.89 5.095.025 10.165.025 15.26 0 .769 0 .937.241.841.962-.096.793-.145 1.634 0 2.403.216.985-.241 1.033-.986 1.01-2.451-.025-4.878 0-7.329 0-.48 0-.96.023-1.441 0-.673-.049-1.082.167-1.034.936.048.745-.192 1.61.913 1.755.36.048.721 0 1.082 0 2.595 0 5.214 0 7.809-.048.721-.024 1.034.168.962.937a12.09 12.09 0 000 2.282c.096.841-.217 1.082-1.034 1.082-2.715-.024-5.43-.024-8.17-.024-.288 0-.552-.024-.84 0-.626.048-.986.336-.77 1.01.12.408.096.792.072 1.177-.048 1.225-.048 1.225 1.202 1.225 2.835 0 5.695.024 8.53-.024.745 0 .986.24.962.937-.024.961-.049 1.923 0 2.884.048.745-.217.913-.914.913a1566.3 1566.3 0 00-15.018 0c-.793 0-1.01-.216-1.01-.985.097-2.932.097-5.84.097-8.771zM32.34 16.254c0-1.874.048-3.773-.024-5.647-.024-.865.264-1.081 1.081-1.057 1.322.072 2.643.024 3.965.024 1.346 0 1.346 0 1.346 1.297v10.453c0 2.019 1.153 3.364 2.86 3.292 1.73-.048 3.22-1.586 3.243-3.34.024-3.484 0-6.969 0-10.453 0-1.25 0-1.25 1.322-1.25s2.643.025 3.965 0c.673-.023 1.033.169 1.033.938-.024 3.556.048 7.113-.048 10.693-.048 1.874-.625 3.7-1.826 5.142-1.466 1.755-3.316 2.932-5.767 2.836-1.586-.072-3.196.024-4.806-.096-1.947-.168-3.364-1.25-4.614-2.595-1.394-1.49-1.754-3.317-1.706-5.287 0-1.682-.024-3.316-.024-4.95zm27.755 2.906c0 2.884-.024 5.768.024 8.627.024.89-.264 1.202-1.153 1.178-1.442-.048-2.884-.072-4.326 0-.913.048-1.13-.313-1.13-1.154.049-5.166.025-10.308.049-15.475 0-.865-.433-1.922.168-2.547.6-.6 1.658-.168 2.523-.216.89-.048 1.754.024 2.644-.024.864-.024 1.249.168 1.225 1.201-.096 2.812-.024 5.6-.024 8.41z" fill="#090909"/></g><defs><clipPath id="clip0"><path fill="#fff" transform="translate(.078)" d="M0 0h105v30H0z"/></clipPath></defs></svg>