<svg width="115" height="40" fill="none" xmlns="http://www.w3.org/2000/svg"><path d="M31.241 7.528h18.76v6.764H39.77v2.41h6.434v6.143H39.77v8.32h-8.53V7.528zm30.157 0v17.961H70.7v5.598H53.103V7.527h8.294zm13.1 0h8.296v23.56h-8.295V7.527zm31.63 13.296c.697-.234 1.318-.622 1.86-1.011.775-.622 1.396-1.322 1.861-2.255a5.766 5.766 0 00.698-2.8 6.12 6.12 0 00-.543-2.565c-.388-.855-.93-1.555-1.628-2.255a8.708 8.708 0 00-3.411-1.944c-1.318-.389-3.023-.622-4.961-.622H87.057v23.56h8.295v-9.02l7.985 9.02h10.388l-10.078-9.642c.93 0 1.783-.233 2.481-.466zM95.275 12.27h1.55c1.783 0 3.023.233 3.799.777.403.237.727.589.93 1.01.233.39.31.778.31 1.167s-.155.778-.388 1.167c-.232.388-.542.7-.93 1.01-.775.545-2.015.778-3.798.778h-1.55v-5.91h.077zm-88.84 7.775l6.899-6.92 6.9 6.92-6.9 6.92-6.9-6.92zM0 13.592l6.357 6.376L0 26.344 13.256 39.64l13.257-13.218-6.357-6.376 6.357-6.376L13.256.374 0 13.592zm112.019-4.276h.466c.232 0 .31-.156.31-.389 0-.155-.078-.31-.31-.31h-.466v.699zm0 1.244h-.387V8.383h.853c.387 0 .62.31.62.544 0 .233-.233.467-.465.544.31 0 .387.078.387.545 0 .077 0 .466.078.544h-.388c-.077-.156-.077-.467-.077-.7 0-.233-.233-.233-.31-.233h-.388v.933h.077zm-1.317-1.089c0 .933.697 1.633 1.628 1.633.93 0 1.627-.7 1.627-1.633s-.697-1.632-1.627-1.632c-.853 0-1.628.7-1.628 1.632zm3.566 0c0 1.089-.853 1.944-1.861 1.944a1.922 1.922 0 01-1.938-1.944c0-1.088.853-1.866 1.938-1.866 1.008-.077 1.861.778 1.861 1.866z" fill="#002F87"/></svg>