<svg width="106" height="45" fill="none" xmlns="http://www.w3.org/2000/svg"><g clip-path="url(#clip0)"><path d="M16.124 42.457c0 .882.486 1.194 1.215 1.194.365 0 .677-.07 1.06-.26v.918a2.78 2.78 0 01-1.303.311c-1.163 0-2.048-.57-2.048-2.042V38.25H14.04v-.952h1.007v-2.18h1.076v2.18h2.292v.952h-2.292v4.206zm8.368 2.06h-1.076V34.322h1.076v4.24c.469-.778 1.233-1.418 2.483-1.418 1.753 0 2.777 1.176 2.777 2.89v4.483h-1.076v-4.224c0-1.35-.73-2.18-2.014-2.18-1.25 0-2.17.9-2.17 2.267v4.137zm13.818-.762c.99 0 1.701-.415 2.291-1.021l.677.606c-.729.813-1.614 1.35-2.986 1.35-1.996 0-3.61-1.523-3.61-3.773 0-2.095 1.475-3.773 3.472-3.773 2.152 0 3.385 1.713 3.385 3.825 0 .103 0 .207-.018.328h-5.746c.122 1.576 1.25 2.458 2.535 2.458zm2.1-3.254c-.104-1.315-.868-2.457-2.308-2.457-1.268 0-2.205 1.055-2.344 2.457h4.652zm7.153 4.016h-1.077v-7.218h1.077v1.887c.538-1.194 1.58-2.06 2.95-2.008v1.16h-.086c-1.58 0-2.864 1.142-2.864 3.305v2.874zm15.969-7.373c1.667 0 2.691 1.125 2.691 2.907v4.466h-1.076v-4.223c0-1.402-.695-2.181-1.875-2.181-1.094 0-2.014.813-2.014 2.233v4.153H60.2v-4.24c0-1.35-.711-2.146-1.857-2.146s-2.014.952-2.014 2.284v4.12h-1.076v-7.218h1.076v1.212c.469-.71 1.111-1.367 2.344-1.367 1.18 0 1.927.623 2.326 1.436.503-.796 1.267-1.436 2.535-1.436zm8.524 1.54l-.33-.883c.799-.363 1.58-.588 2.639-.588 1.979 0 3.09 1.004 3.09 2.908v4.413h-1.042v-1.09c-.503.657-1.336 1.246-2.62 1.246-1.338 0-2.709-.762-2.709-2.267 0-1.54 1.267-2.354 3.09-2.354.92 0 1.58.12 2.222.311v-.26c0-1.297-.799-1.972-2.153-1.972-.833 0-1.51.224-2.187.536zm.122 3.687c0 .917.833 1.453 1.822 1.453 1.337 0 2.43-.813 2.43-1.955v-.693a7.542 7.542 0 00-2.135-.311c-1.353-.017-2.117.571-2.117 1.506zM84 34.322h-1.076v10.195H84V34.322zM.953 25.876l2.083-2.458c3.108 2.804 6.094 4.206 10.208 4.206 3.992 0 6.631-2.129 6.631-5.037v-.086c0-2.752-1.493-4.327-7.742-5.642-6.84-1.489-10-3.687-10-8.568v-.086c0-4.656 4.132-8.1 9.774-8.1 4.34 0 7.447 1.228 10.468 3.634l-1.962 2.58c-2.76-2.251-5.537-3.22-8.593-3.22-3.871 0-6.336 2.111-6.336 4.777v.086c0 2.804 1.528 4.362 8.072 5.764 6.632 1.436 9.687 3.86 9.687 8.394v.087c0 5.088-4.253 8.394-10.155 8.394-4.688.035-8.559-1.54-12.135-4.725zm36.211 1.852c3.315 0 5.642-1.35 7.603-3.393l2.24 2.008c-2.43 2.7-5.365 4.518-9.947 4.518-6.632 0-12.03-5.072-12.03-12.566 0-6.975 4.895-12.566 11.578-12.566 7.135 0 11.25 5.677 11.25 12.756 0 .33 0 .693-.036 1.247H28.675c.503 5.053 4.236 7.996 8.489 7.996zm7.048-10.887c-.417-4.379-2.934-8.1-7.708-8.1-4.149 0-7.326 3.444-7.846 8.1h15.554zm18.227 10.887c3.315 0 5.66-1.35 7.603-3.393l2.24 2.008c-2.43 2.7-5.364 4.518-9.947 4.518-6.632 0-12.048-5.072-12.048-12.566 0-6.975 4.895-12.566 11.579-12.566 7.135 0 11.249 5.677 11.249 12.756 0 .33 0 .693-.052 1.247H53.95c.503 5.053 4.253 7.996 8.489 7.996zm7.048-10.887c-.417-4.379-2.934-8.1-7.708-8.1-4.149 0-7.326 3.444-7.846 8.1h15.554zM79.297.468h-3.438v30.271h3.438V.468z" fill="#000"/><path d="M94.398 30.791L79.191 15.629 94.398.468 98.634.45 83.427 15.63l15.207 15.16h-4.236z" fill="#000"/><path d="M71.034.33H29.197v2.716h41.837V.33z" fill="url(#paint0_linear)"/><path d="M71.034.33H29.197v2.716h41.837V.33z" fill="url(#paint1_linear)"/><path d="M101.151 2.96h-.364V.76h-.816V.415h2.013v.346h-.815V2.96h-.018zm2.691-.555h-.052l-.903-1.384v1.956h-.364V.432h.381l.921 1.402.902-1.402h.382v2.545h-.364V1.02l-.903 1.384z" fill="#BDBDBD"/></g><defs><linearGradient id="paint0_linear" x1="29.197" y1="1.7" x2="71.032" y2="1.7" gradientUnits="userSpaceOnUse"><stop/><stop offset=".056" stop-color="#2C0003"/><stop offset=".133" stop-color="#610107"/><stop offset=".204" stop-color="#8C010B"/><stop offset=".268" stop-color="#AA020D"/><stop offset=".323" stop-color="#BC020E"/><stop offset=".362" stop-color="#C3020F"/><stop offset=".699" stop-color="#EC631B"/><stop offset=".913" stop-color="#F9F5BC"/><stop offset="1" stop-color="#F9F5BC"/></linearGradient><linearGradient id="paint1_linear" x1="50.116" y1=".329" x2="50.116" y2="3.046" gradientUnits="userSpaceOnUse"><stop stop-color="#fff"/><stop offset="1" stop-color="#fff" stop-opacity="0"/></linearGradient><clipPath id="clip0"><path fill="#fff" transform="translate(.475)" d="M0 0h105v45H0z"/></clipPath></defs></svg>