<svg width="225" height="45" fill="none" xmlns="http://www.w3.org/2000/svg"><g clip-path="url(#clip0)" fill-rule="evenodd" clip-rule="evenodd"><path d="M213.176 12.762h-17.409v16.727l2.598 5.918h6.385v-6.874h5.271c.705 0 1.299.073 1.744.22.446.147.78.368 1.039.699.223.33.372.772.446 1.323.037.478.074.92.074 1.36 0 .442 0 .846.037 1.25 0 .405.075.772.112 1.103.074.331.185.662.334.92h9.836v-.368c-.334-.184-.594-.515-.742-.993-.149-.478-.26-1.103-.297-1.875-.037-.772-.111-1.69-.149-2.794-.037-.661-.074-1.213-.148-1.69a5.027 5.027 0 00-.408-1.324c-.186-.368-.483-.699-.817-.993-.371-.294-.854-.551-1.448-.809a5.676 5.676 0 002.005-1.286 5.21 5.21 0 001.262-1.949c.297-.735.445-1.58.445-2.463 0-1.103-.222-2.059-.668-2.904-.445-.846-1.076-1.507-1.93-2.022-.705-.441-1.708-.735-2.97-.92-1.299-.183-2.821-.256-4.602-.256zM13.289 2.909C2.227 8.46-2.227 21.805 3.378 32.761c5.605 10.955 19.08 15.33 30.14 9.778 11.062-5.55 15.517-18.896 9.912-29.85-5.605-10.956-19.08-15.33-30.141-9.78zM204.75 22.541v-4.044h4.936c.854 0 1.597.036 2.153.147.557.073 1.003.294 1.3.551.296.294.445.698.445 1.287 0 .551-.149.992-.408 1.286-.26.294-.706.515-1.225.625a10.46 10.46 0 01-2.042.184h-5.159v-.037zm-27.506 5.073l2.896-7.978 2.746 7.978h-5.642zm-12.398 7.793h9.466l.816-2.242h9.726l.742 2.242h9.577l-9.206-22.645H174.72l-9.874 22.645zm-28.767-6.911c.037 3.603 2.747 5.698 5.976 6.654 1.968.588 4.38.882 7.276.92 3.489 0 6.384-.258 8.686-.81 2.301-.551 4.008-1.433 5.159-2.61 1.151-1.176 1.708-2.72 1.708-4.595 0-1.875-.631-3.346-1.856-4.448-1.262-1.103-3.118-1.802-5.643-2.17l-8.054-1.14a27.13 27.13 0 01-1.893-.33c-.483-.11-.891-.294-1.114-.478-.26-.184-.371-.441-.371-.772 0-.441.26-.809.816-1.066.557-.257 1.337-.404 2.413-.404 1.374 0 2.413.183 3.155.551.743.368 1.151.882 1.262 1.618h10.282c-.111-1.691-.742-3.052-1.818-4.118-1.077-1.066-2.673-1.838-4.752-2.316-2.078-.478-4.677-.735-7.758-.735-2.969 0-5.456.257-7.386.735-1.931.478-3.415 1.287-4.343 2.353-.965 1.066-1.411 2.463-1.411 4.19 0 1.913.705 3.42 2.079 4.56 1.373 1.14 3.452 1.838 6.162 2.205l6.607.809c1.039.147 1.856.33 2.375.625.52.294.78.698.78 1.176 0 .552-.297.956-.891 1.214-.594.257-1.485.404-2.672.404-1.225 0-2.153-.184-2.859-.515-.668-.33-1.076-.808-1.15-1.397h-10.765v-.11zm-20.156 6.911h21.01c-2.227-1.36-3.415-3.676-3.675-6.874h-8.463V12.762h-8.872v22.645zM95.025 12.762h-8.834v11.874c0 2.61.482 4.742 1.447 6.433.966 1.692 2.45 2.941 4.455 3.713 2.004.81 4.528 1.214 7.61 1.214 3.08 0 5.604-.405 7.609-1.177 2.004-.809 3.452-2.059 4.417-3.713.965-1.69 1.448-3.823 1.448-6.47V12.762h-8.835v11.065c0 1.066-.074 1.985-.223 2.757-.148.772-.371 1.397-.742 1.875a2.948 2.948 0 01-1.41 1.066c-.594.22-1.374.331-2.265.331-.89 0-1.67-.11-2.264-.33a3.238 3.238 0 01-1.448-1.067c-.334-.478-.594-1.103-.742-1.875-.148-.772-.223-1.69-.223-2.757V12.762zm-24.61 4.852c.891 0 1.596.074 2.19.22.557.148 1.002.369 1.262.736.26.368.409.846.409 1.507 0 .662-.149 1.14-.409 1.508-.26.367-.705.625-1.262.735-.556.147-1.299.22-2.19.184h-4.862v-4.89h4.862zM56.718 35.407h8.835v-7.94h8.24c2.19 0 4.009-.294 5.53-.883 1.486-.588 2.636-1.433 3.416-2.5.78-1.102 1.15-2.426 1.15-3.97s-.408-2.83-1.15-3.934c-.78-1.102-1.893-1.911-3.415-2.5-1.485-.588-3.34-.882-5.53-.882H56.717v22.61z" fill="#0066B3"/><path d="M16.072 39.341c10.282 4.338 22.271-.22 26.577-10.11.78-1.801 1.3-3.676 1.485-5.661l-23.942 6.323-4.12 9.448zm28.173-17.499a19.732 19.732 0 00-1.484-7.757C40.645 9.012 36.636 5.19 31.848 3.13l-5.049 11.543-24.201 5.735v1.508c13.92-.11 27.728-.11 41.647-.074z" fill="#fff"/></g><defs><clipPath id="clip0"><path fill="#fff" transform="translate(.078)" d="M0 0h224v45H0z"/></clipPath></defs></svg>