<svg width="65" height="55" fill="none" xmlns="http://www.w3.org/2000/svg"><g clip-path="url(#clip0)"><path fill-rule="evenodd" clip-rule="evenodd" d="M56.978 30.785l-1.607-7.428-.417-.483v8.273c0 1.51-1.012 2.234-2.024 2.234-.893 0-1.726-.543-2.202-1.328l-1.012-1.933v2.657c0 .181-.178.363-.417.363h-3.154c-.179 0-.358-.182-.358-.363v-8.696c0-1.328 1.012-2.053 2.084-2.053 1.012 0 1.845.604 2.262 1.51l.893 1.812v-2.84c0-.241.119-.362.357-.362h2.797l-3.154-3.2c-.06 0-.12.06-.12.06h-.773c-.12 0-.298-.12-.298-.302V17.8l-1.012-1.026-.655 1.992c-.06.121-.119.181-.297.181h-.774a.327.327 0 01-.298-.18l-1.31-3.745c-.059-.12 0-.18.06-.302.06-.06.12-.12.239-.12h.773c.12 0 .238.06.298.18l.655 1.993.357-1.026-9.584-9.662s1.727 3.502 2.739 9.903l.06-.06c.059-.12.118-.241.237-.241h.715c.119 0 .238.06.238.241l.238.785.238-.785c.06-.12.119-.181.238-.181h.714c.12 0 .179.06.238.12.06.061.06.182.06.242l-.893 2.718c-.06.12-.12.241-.238.241h-.655c-.119 0-.238-.12-.297-.241l-.18-.725-.178.725c-.06.06-.06.06-.06.12.298 2.597.418 5.496.298 8.757h2.977c.178 0 .357.18.357.362v1.993c0 .241-.179.423-.357.423h-3.274C40.192 44.25 32.632 55 32.632 55m-9.94-21.679c-2.738 0-4.107-2.174-4.107-4.348 0-1.087.357-2.113 1.012-2.838.833-.966 2.202-1.45 3.75-1.208v-2.476a.41.41 0 01.417-.422h.774C26.323 10.495 32.99.65 32.99.65L9.002 24.988c.298.724.536 1.57.595 2.536a6.868 6.868 0 01-.595 2.838l18.512 18.901s-2.5-6.038-3.215-16.183c-.476.12-1.011.241-1.607.241zm-6.13-4.106l1.607 1.57c.119.12.119.302.06.483-.834 1.208-2.382 1.993-3.989 1.993-2.024 0-4.226-1.329-4.226-4.228 0-2.777 2.143-4.287 4.167-4.287 1.845 0 3.452 1.147 4.166 3.02.06.18-.06.362-.178.422l-1.608 1.027c-.06 0 0 0 0 0z" fill="#009036"/><path fill-rule="evenodd" clip-rule="evenodd" d="M22.037 29.033c0 .302.179.665.536.665.476 0 .774-.302.774-.785v-.544h-.06c-.119-.06-.238-.06-.417-.06-.773 0-.833.543-.833.724zM.729 32.717V22.451h3.63c2.977.06 4.762 2.174 4.881 5.073 0 3.02-1.785 5.193-4.88 5.193v-3.02c1.964.061 2.559-4.226-.417-4.226v7.186m13.987-4.711l-3.63 2.113-.834-1.51 1.37-.784c-.655-.846-2.084.06-1.846 1.389.238 1.207 1.786 2.113 3.333.362l1.608 1.57c-1.965 2.96-7.56 2.476-7.56-2.053 0-4.348 5.952-5.375 7.56-1.087z" fill="#1A171B"/><path fill-rule="evenodd" clip-rule="evenodd" d="M23.705 22.331h2.857v5.978c0 2.718-.952 4.59-3.869 4.59-5.06 0-5.119-8.515.655-7.73v2.778c-2.202-.423-2.024 2.114-.774 2.114.655 0 1.131-.544 1.131-1.208m8.392 3.865c-2.44.422-4.703-1.087-4.703-3.684 0-2.416 1.667-3.804 3.989-3.804 2.38 0 4.047 1.811 4.047 4.227v3.32h-2.916v-3.743c0-.725-.536-1.087-1.19-1.027-1.668 0-1.191 2.838.713 1.872" fill="#1A171B"/><path d="M39.36 22.451h-3.036v10.266h3.036V22.451zm5.415 5.495h-3.988v1.993h3.988v-1.993z" fill="#1A171B"/><path fill-rule="evenodd" clip-rule="evenodd" d="M46.145 32.717V24.08c0-2.053 2.797-2.294 3.63-.422l1.548 3.321V22.51h3.155v8.636c0 2.295-2.62 2.355-3.512.664l-1.726-3.26v4.166m6.37-10.265h3.154l1.012 6.22 1.012-6.22h3.274l-2.024 9.119c-.417 1.751-4.167 1.751-4.524-.121M32.098 18.646v-3.744h.773l1.548 2.537v-2.537h.655v3.744H34.3l-1.488-2.476v2.476h-.714zm6.011-.845l.655.12c-.416 1.39-2.44 1.027-2.44-.603 0-1.933 2.56-1.993 2.56.181h-1.786c-.06.785.773.966 1.011.302zm0-.725c-.059-.845-1.07-.845-1.07 0h1.07zm2.441 1.57l-.833-2.717h.654l.477 1.751.476-1.751h.714l.417 1.751.476-1.751h.714l-.833 2.717h-.655l-.476-1.75-.476 1.75h-.655zm6.548 0l-1.37-3.744h.834l.952 2.778.893-2.778h.774l-1.31 3.744h-.773zm3.035-3.08h.714v-.664h-.714v.665zm0 3.08h.714V15.93h-.714v2.717zm1.845-.724l.715-.121c.06.12.119.242.178.302.238.12.655.12.834.06.238-.241.06-.422-.179-.422-.595-.121-.952-.242-1.13-.363-.418-.302-.418-.845-.06-1.207.357-.303 1.31-.303 1.666-.06a.88.88 0 01.357.543l-.654.06c-.12-.483-1.012-.362-1.012-.06 0 .241.595.302.774.302.476.12 1.011.241 1.011.845 0 .664-.654.906-1.25.906-.535 0-1.071-.181-1.25-.785zm3.81-2.355h.714v-.665h-.714v.665zm0 3.08h.714v-2.718h-.714v2.717zm1.905-1.39c0-.785.595-1.389 1.369-1.389.833 0 1.369.604 1.369 1.39 0 .785-.595 1.449-1.37 1.449-.892 0-1.368-.604-1.368-1.45zm.714 0c0 .423.238.846.655.846.416 0 .655-.423.655-.846 0-.422-.18-.845-.655-.845-.476 0-.655.483-.655.846zm5.655 1.39h-.655v-1.39c0-.302-.06-.483-.06-.603-.119-.423-.773-.302-.952.12-.06.121-.06.302-.06.604v1.208h-.714v-2.717h.655v.483c.238-.302.536-.484.893-.484.417 0 .774.182.833.604.06.121.06.242.06.483v1.691z" fill="#1A171B"/></g><defs><clipPath id="clip0"><path fill="#fff" transform="translate(.445)" d="M0 0h64.03v55H0z"/></clipPath></defs></svg>