<svg width="176" height="25" fill="none" xmlns="http://www.w3.org/2000/svg"><g clip-path="url(#clip0)" fill="#000"><path d="M.396.957h28.196v5.13H6.24v3.78h22.444v5.477H6.24v9.235H.396V.957zm32.381 0h5.84v17.776h18.72v5.892h-24.56V.957zM76.1 24.672H64.743s-4.003-.232-4.417-4.55V1.002h5.84V19.15h20.65V1.003h5.844v19.12c-.415 4.317-4.415 4.549-4.415 4.549H76.1zM97.857.957v23.668h6.209v-8.863l14.074 8.863h10.394l-18.995-12.157L127.661.958h-10.255L104.019 9.08V.957h-6.162zm33.53-.373v23.67h29.343v-5.523h-23.548v-3.387h23.548V9.82h-23.548V6.153h23.593V.583h-29.388zm40.402 17.104c.564 0 1.115.146 1.653.438a3.1 3.1 0 011.257 1.255c.3.544.45 1.111.45 1.702a3.47 3.47 0 01-.443 1.686 3.14 3.14 0 01-1.244 1.257 3.379 3.379 0 01-1.673.447 3.38 3.38 0 01-1.674-.447 3.155 3.155 0 01-1.245-1.257 3.441 3.441 0 01-.446-1.686c0-.59.151-1.158.452-1.702a3.117 3.117 0 011.259-1.255 3.425 3.425 0 011.654-.439zm0 .562c-.473 0-.933.122-1.38.366a2.614 2.614 0 00-1.049 1.048 2.876 2.876 0 00-.379 1.419c0 .488.124.957.372 1.405a2.65 2.65 0 001.041 1.048c.445.25.91.375 1.395.375a2.81 2.81 0 001.395-.375c.445-.25.791-.6 1.038-1.048.247-.448.37-.917.37-1.405a2.9 2.9 0 00-.377-1.42 2.601 2.601 0 00-1.049-1.047 2.85 2.85 0 00-1.377-.366zm-1.476 4.708v-3.652h1.244c.425 0 .732.034.922.102a.893.893 0 01.455.353.976.976 0 01-.114 1.232c-.188.198-.439.309-.751.333a.986.986 0 01.308.193c.146.144.324.385.535.724l.441.715h-.713l-.321-.576c-.253-.452-.456-.736-.611-.85-.107-.084-.262-.125-.467-.125h-.344v1.551h-.584zm.584-2.055h.709c.339 0 .57-.051.693-.153a.5.5 0 00.185-.405.499.499 0 00-.089-.29.534.534 0 00-.248-.191c-.105-.042-.3-.063-.586-.063h-.664v1.102z"/></g><defs><clipPath id="clip0"><path fill="#fff" transform="translate(.09)" d="M0 0h175.806v25H0z"/></clipPath></defs></svg>