<svg width="120" height="45" fill="none" xmlns="http://www.w3.org/2000/svg"><path d="M40.57 9.328c-4.508-1.138-8.81-.708-13.088-.834-.948-.025-1.332.278-1.614 1.163-1.51 4.955-3.099 9.885-4.661 14.814-1.204 3.843-2.433 7.66-3.637 11.503-.102.329-.256.632-.18 1.113h7.736c.614 0 .589-.531.691-.91a3875.419 3875.419 0 005.174-15.978c.794-2.452 1.588-4.88 2.33-7.357.231-.784.666-1.036 1.46-1.062 1.46-.05 2.843.253 4.175.835.769.354 1.28.986 1.434 1.82.333 1.845-.23 3.438-1.536 4.727-1.742 1.72-3.79 2.933-6.25 3.464-.665.152-.768.455-.537 1.087 1.562 4.247 3.073 8.52 4.61 12.792.153.43.384.582.845.556.46-.025.948 0 1.409 0 .179.455-.23.607-.436.81-3.842 3.791-8.452 5.966-13.856 6.572-4.021.455-7.76-.354-11.448-1.845-.743-.304-.897-.632-.666-1.416 2.048-6.32 4.097-12.64 6.095-18.986 1.486-4.702 3.074-9.354 4.457-14.056.666-2.275 1.434-4.55 2.202-6.826.23-.682.487-.91 1.255-.758 3.176.682 6.122 1.896 8.81 3.741 1.947 1.39 3.612 2.958 5.226 5.031z" fill="#C32E2D"/><path d="M73.966 27.378c2.664 3.135 5.354 6.32 8.043 9.506-.052.076-.077.177-.128.253h-6.864c-.564 0-.794-.455-1.076-.784-2.203-2.553-4.405-5.132-6.608-7.71-.435.176-.23.53-.23.758-.026 2.225-.052 4.475 0 6.7.025.859-.257 1.086-1.076 1.036-1.28-.05-2.561-.076-3.842 0-.87.05-1.076-.253-1.05-1.062.026-4.045.026-8.09.026-12.135 0-4.171.025-8.343-.026-12.514-.026-.96.282-1.213 1.23-1.188 3.073.152 6.146-.227 9.194.228 6.275.935 9.553 7.28 6.71 12.918-.794 1.567-2.1 2.63-3.61 3.463-.257.127-.539.177-.693.531zm-4.943-4.677c.615-.025 1.332-.025 2.05-.227 1.562-.455 2.381-1.517 2.356-3.16-.026-1.492-.948-2.604-2.485-2.933-.999-.227-2.023-.253-3.047-.253-.718-.025-.846.304-.82.91.026 1.29 0 2.604 0 3.894 0 1.77 0 1.77 1.946 1.77zm49.612-2.831c-1.358 3.136-2.613 6.094-3.868 9.026-2.125 4.955-4.251 9.91-6.326 14.89-.307.759-.691 1.113-1.588 1.062-1.562-.1-3.15-.025-4.687-.025-.23-.43.026-.708.154-1.011.794-1.896 1.588-3.817 2.433-5.688.333-.708.307-1.315.026-2.048-1.87-5.006-3.688-10.037-5.532-15.067-.129-.354-.36-.683-.257-1.138 1.742 0 3.484.025 5.225-.025.717-.026.82.404.999.91.922 2.629 1.87 5.233 2.792 7.862.077.228.179.455.358.91l1.153-2.604c.896-2.098 1.793-4.196 2.664-6.295.204-.53.461-.809 1.101-.809 1.716.076 3.432.05 5.353.05z" fill="#626262"/><path d="M98.093 28.49c0 2.58-.026 5.133 0 7.711 0 .683-.154.986-.922.961-1.409-.05-2.817 0-4.226-.025-.359 0-.794.126-.845-.48-.026-.456-.333-.203-.538-.127-5.353 1.72-9.835-1.163-10.501-6.725-.282-2.376.025-4.626 1.332-6.674 2.074-3.261 5.814-4.626 9.527-3.489 1.588.48 3.202.177 4.816.253 1.306.05 1.306.025 1.306 1.29.05 2.426.05 4.853.05 7.306zm-5.942-.555V25.28c0-.405-.077-.708-.538-.86-1.332-.455-3.304.152-4.123 1.315-.974 1.365-1.025 3.767-.103 5.132.897 1.315 2.536 1.72 3.919.986.589-.303.896-.708.845-1.39-.051-.835 0-1.694 0-2.529z" fill="#626262"/><path d="M57.037 27.683c0 2.78-.051 5.561.026 8.317.025 1.011-.308 1.214-1.23 1.163-1.306-.076-2.638-.025-3.97 0-.589 0-.922-.076-.922-.81a1911 1911 0 000-17.266c0-.632.23-.784.82-.784 1.46.026 2.894.05 4.354 0 .743-.025.922.253.922.961-.026 2.78 0 5.612 0 8.419zM9.758 4.196C6.966 12.893 4.25 21.413 1.46 30.134c-3.637-9.05-.308-20.35 8.298-25.938zM22.461.328A25831.79 25831.79 0 019.655 40.5c-1.716-.936-1.716-.936-1.178-2.554l9.758-30.489 1.844-5.764C20.54.151 20.54.151 22.461.328zm-3.866.329c-3.996 12.565-7.966 24.952-11.936 37.39-1.024-.632-1.229-1.264-.87-2.35 3.637-11.25 7.222-22.5 10.782-33.776.333-1.037.922-1.29 2.024-1.264zM41.8 33.522a1017.29 1017.29 0 00-3.33-8.039c-.18-.405-.18-.683.333-.86 1.895-.682 3.586-1.693 5.148-2.983.64-.53.845-.404.896.405.256 3.54-.999 8.368-3.048 11.477zM53.965 16.23c-.64 0-1.28-.025-1.92 0-.77.05-1.18-.126-1.102-1.01.077-1.34.051-2.68 0-4.046-.026-.607.102-.935.82-.91 1.485.05 2.97.025 4.482 0 .512 0 .793.127.768.708a134.827 134.827 0 000 4.55c0 .582-.256.734-.768.708-.743-.025-1.512 0-2.28 0zM4.225 35.09c-.845-.456-.665-1.037-.46-1.67 2.458-7.66 4.891-15.32 7.324-22.954.82-2.554 1.64-5.132 2.46-7.686.178-.606.41-1.112 1.357-1.087C11.32 12.817 7.786 23.94 4.226 35.09zm-1.894-3.186c-.512-.278-.615-.632-.41-1.29 2.843-8.746 5.635-17.519 8.427-26.291.204-.607.46-1.062 1.306-1.264C8.58 12.766 5.558 22.373 2.33 31.904z" fill="#C32E2D"/></svg>