<svg width="213" height="45" fill="none" xmlns="http://www.w3.org/2000/svg"><path d="M69.109 14.997h-2.364c-5.855.027-11.71.08-17.592.054-1.075 0-1.424.323-1.585 1.401-.94 6.737-1.987 13.474-3.008 20.21-.054.35-.188.674-.296 1.078h-4.888V11.601h-.403v1.402c-.027 7.599-.027 15.171-.053 22.77 0 2.129-.027 2.129-2.15 2.129-3.007 0-6.042-.324-8.997.108-7.574 1.05-15.175.215-22.75.539-.16 0-.348.053-.725.134.242 1.725.51 3.423.78 5.336-1.021 0-2.042.054-3.036-.027-.241-.027-.564-.539-.617-.835C0 31.542 2.902 21.195 10.825 12.572 25.571-3.488 50.254-4.055 65.86 11.09a210.694 210.694 0 013.492 3.449c-.08.162-.162.323-.242.458zM23.556 35.665l-.16.404c-.43.243-.834.647-1.263.674-1.558.108-2.982-.27-4.136-1.401-.484-.485-1.129-.809-1.693-1.186-.886-.62-1.745-1.293-2.659-1.886a1.757 1.757 0 00-.94-.296c-2.202 0-4.27-2.237-4.136-4.447.054-.727.403-1.428 1.101-1.132 1.263.566 1.907-.215 2.713-.781 2.014-1.374 4.056-2.587 6.634-2.587.86 0 1.934-.242 2.579-.754.966-.782 1.665-1.914 2.47-2.91.86-1.052 1.72-2.13 2.633-3.154.59-.646 1.343-1.158 1.907-1.832.617-.7 1.074-1.536 1.665-2.264 1.558-1.859 2.364-1.886 3.895-.269 1.53-.323 2.98-.647 4.431-.97v-7.33c-20.063.054-34.809 17.3-34.084 34.142h21.165c.054-.108.08-.188.134-.296-.752-.566-1.504-1.159-2.256-1.725zM39.51 3.464v5.928c0 1.832.591 2.263 2.39 1.67 1.317-.43 2.633-.916 3.869-1.508 3.169-1.51 6.419-.27 9.615-.19 1.639.055 3.277 1.025 4.915 1.564-6.016-4.85-12.892-7.195-20.788-7.464zm142.46 30.423c.779-4.931 1.531-9.54 2.283-14.255h5.533a430.729 430.729 0 01-.993 6.952c-.779 5.201-1.585 10.375-2.31 15.576-.135.97-.457 1.32-1.424 1.24-1.504-.108-3.33.404-4.458-.27-1.075-.647-1.478-2.452-2.095-3.773-1.451-2.99-2.847-5.982-4.271-8.973-.188-.377-.43-.755-.806-1.401-.618 4.122-1.128 7.895-1.772 11.668-.538 3.287.295 2.694-3.036 2.748-.966.027-1.96 0-3.115 0 .403-2.64.752-5.093 1.128-7.545.752-5.012 1.558-9.997 2.283-15.01.134-.97.483-1.32 1.423-1.239 1.236.08 2.525-.054 3.761.08.456.055 1.02.513 1.235.917 1.988 3.961 3.922 7.95 5.882 11.938.188.377.403.727.752 1.347zM93.524 29.17c-.16 5.471-1.692 10.294-6.741 13.205-3.948 2.263-8.192 2.452-12.409.781-3.519-1.374-4.835-4.392-5.237-7.976-.86-7.41 3.948-14.686 10.877-15.98 2.149-.404 4.486-.35 6.635 0 4.082.647 6.472 3.584 6.849 7.815.08.727.026 1.455.026 2.156zm-11.092-5.55c-1.666-.108-3.17.566-4.27 1.913-2.606 3.18-3.439 6.817-2.338 10.833.376 1.374 1.263 2.371 2.66 2.802 2.632.809 5.29-.08 6.848-2.398 1.639-2.452 2.364-5.228 2.176-8.165-.215-3.315-1.934-4.958-5.076-4.985zm18.854 19.698h-5.694c.188-1.509.376-2.937.59-4.365.887-6.117 1.8-12.234 2.687-18.378.107-.755.376-1.078 1.181-1.051 4.083.054 8.139-.054 12.221.054 4.566.135 6.527 2.722 5.721 7.195-.43 2.452-1.37 3.718-4.082 5.55 2.309 1.267 2.336 3.37 2.068 5.606-.215 1.724-.323 3.45-.484 5.416-1.423 0-3.142.054-4.861-.054-.269-.027-.725-.673-.752-1.05-.054-1.105-.054-2.264.134-3.342.483-3.045-.349-4.123-3.357-4.15-1.021 0-2.068 0-3.089-.054-.806-.054-1.074.243-1.182 1.024-.322 2.506-.698 4.985-1.101 7.6zm1.987-13.23c2.203 0 4.244.053 6.285-.028.538-.027 1.102-.377 1.558-.727.967-.728 1.477-2.345 1.075-3.396-.457-1.24-1.478-1.563-2.686-1.536-1.478.027-2.955-.053-4.432.027-.376.027-.94.485-1.021.836-.349 1.509-.537 3.072-.779 4.823zm46.143-10.538c-.403 2.965-.806 5.74-1.182 8.543-.295 2.21-.537 4.446-.805 6.683-.215 1.644-.081 3.18 1.584 4.069 1.558.835 4.271.674 5.399-.62.859-.997 1.665-2.29 1.907-3.557.859-4.58 1.504-9.189 2.149-13.824.134-1.024.483-1.374 1.504-1.32 1.423.08 2.847.027 4.458.027-.376 2.479-.698 4.796-1.074 7.114-.403 2.695-.859 5.39-1.262 8.11-1.048 7.034-6.876 10.08-13.242 9.244a12.198 12.198 0 01-3.089-.836c-3.33-1.4-4.727-4.15-4.163-8.138a904.776 904.776 0 012.149-14.497c.054-.377.483-.943.779-.97 1.585-.081 3.169-.027 4.888-.027zm62.421 23.821c-1.692 0-3.438.054-5.156-.053-.323-.027-.753-.54-.86-.917-.295-1.077-.483-2.182-.725-3.422-2.659 0-5.291-.027-7.924.027-.268 0-.564.324-.805.539-.108.08-.108.243-.188.35-.591 1.132-.994 3.018-1.827 3.261-1.746.512-3.76.162-5.909.162.779-1.51 1.451-2.803 2.122-4.096 3.277-6.225 6.581-12.45 9.831-18.702.376-.727.805-1.05 1.638-.997 1.262.081 2.498-.027 3.76.054.376.027.94.404 1.021.7 1.746 7.546 3.438 15.118 5.13 22.69 0 .081-.054.189-.108.404zm-9.078-17.38c-1.504 3.072-2.847 5.793-4.217 8.623h5.882c-.537-2.83-1.047-5.524-1.665-8.623z" fill="#000"/><path d="M69.403 19.605c-.214 1.428-.376 2.748-.67 4.042-.055.269-.726.539-1.129.539-2.981.053-5.99.08-8.998.08-1.047 0-1.665.243-1.692 1.456-.054 1.24-.349 2.452-.537 3.853h9.696c-.188 1.536-.295 2.91-.59 4.23-.055.297-.78.62-1.21.62-2.847.054-5.72.027-8.729.027-.322 2.102-.59 4.177-.967 6.225-.59 3.288.323 2.776-3.142 2.83-.886.026-1.773 0-2.955 0 1.21-8.085 2.39-15.98 3.573-23.902h17.35zm71.821.054c-.161 1.293-.241 2.56-.483 3.772-.081.324-.672.755-1.074.782-1.639.08-3.304.108-4.969.027-1.048-.054-1.343.35-1.478 1.347-.752 5.47-1.584 10.914-2.39 16.357-.081.485-.188.97-.322 1.51h-5.694c.94-6.387 1.88-12.693 2.847-19.187h-7.118c.242-1.644.457-3.072.671-4.635 6.661.027 13.296.027 20.01.027zM37.819 41.108c-1.316-.485-2.23-.916-3.196-1.159-.403-.107-1.128.054-1.316.35-.86 1.375-2.096.755-3.009.459-1.343-.431-2.551-1.294-3.706-2.264h12.086v5.551h-3.464c.913-1.024 1.745-1.967 2.605-2.937zm6.5-2.586a78.294 78.294 0 00-.403 2.802c-.134.89-.242 1.779-.376 2.749h-3.948v-5.525c1.504-.026 3.035-.026 4.727-.026z" fill="#000"/></svg>