<svg width="36" height="36" fill="none" xmlns="http://www.w3.org/2000/svg"><g filter="url(#filter0_d)"><rect x="3" y="2" width="30" height="30" rx="3" fill="#fff"/></g><path d="M24.667 20.28v2a1.332 1.332 0 01-1.453 1.334 13.194 13.194 0 01-5.754-2.047 13 13 0 01-4-4 13.193 13.193 0 01-2.046-5.78 1.336 1.336 0 011.326-1.453h2a1.334 1.334 0 011.334 1.147c.084.64.24 1.268.466 1.873a1.333 1.333 0 01-.3 1.407l-.846.846a10.668 10.668 0 004 4l.846-.846a1.333 1.333 0 011.407-.3 8.56 8.56 0 001.873.466 1.333 1.333 0 011.147 1.354z" stroke="#01274F" stroke-width="1.333" stroke-linecap="round" stroke-linejoin="round"/><defs><filter id="filter0_d" x="0" y="0" width="36" height="36" filterUnits="userSpaceOnUse" color-interpolation-filters="sRGB"><feFlood flood-opacity="0" result="BackgroundImageFix"/><feColorMatrix in="SourceAlpha" values="0 0 0 0 0 0 0 0 0 0 0 0 0 0 0 0 0 0 127 0"/><feOffset dy="1"/><feGaussianBlur stdDeviation="1.5"/><feColorMatrix values="0 0 0 0 0.445833 0 0 0 0 0.445833 0 0 0 0 0.445833 0 0 0 0.25 0"/><feBlend in2="BackgroundImageFix" result="effect1_dropShadow"/><feBlend in="SourceGraphic" in2="effect1_dropShadow" result="shape"/></filter></defs></svg>