<svg width="77" height="77" fill="none" xmlns="http://www.w3.org/2000/svg"><g filter="url(#filter0_d)"><rect x="6" y="3" width="65" height="65" rx="6" fill="#fff"/></g><path d="M46 21l1.593 3 3.407.414-2.5 2.253L49 30l-3-1.875L43 30l.5-3.333-2.5-2.253L44.5 24l1.5-3z" fill="#01274F"/><path d="M45.717 32.248l-1.937-.498a6.994 6.994 0 11-5.029-8.53l.5-1.937A8.99 8.99 0 0031 36.688V49l6-4 6 4V36.707a8.964 8.964 0 002.716-4.459zm-4.716 13.014l-4-2.666-4 2.666V38.05a8.924 8.924 0 008 .007v7.206z" fill="#01274F"/><defs><filter id="filter0_d" x="0" y="0" width="77" height="77" filterUnits="userSpaceOnUse" color-interpolation-filters="sRGB"><feFlood flood-opacity="0" result="BackgroundImageFix"/><feColorMatrix in="SourceAlpha" values="0 0 0 0 0 0 0 0 0 0 0 0 0 0 0 0 0 0 127 0"/><feOffset dy="3"/><feGaussianBlur stdDeviation="3"/><feColorMatrix values="0 0 0 0 0.620833 0 0 0 0 0.620833 0 0 0 0 0.620833 0 0 0 0.22 0"/><feBlend in2="BackgroundImageFix" result="effect1_dropShadow"/><feBlend in="SourceGraphic" in2="effect1_dropShadow" result="shape"/></filter></defs></svg>